<mxfile host="Electron" modified="2024-04-24T22:50:38.701Z" agent="Mozilla/5.0 (Windows NT 10.0; Win64; x64) AppleWebKit/537.36 (KHTML, like Gecko) draw.io/24.2.5 Chrome/120.0.6099.109 Electron/28.1.0 Safari/537.36" etag="sd_IyDe7pveHJ2xaB_m-" version="24.2.5" type="device">
  <diagram id="C5RBs43oDa-KdzZeNtuy" name="Page-1">
    <mxGraphModel dx="2269" dy="4783" grid="1" gridSize="10" guides="1" tooltips="1" connect="1" arrows="1" fold="1" page="1" pageScale="1" pageWidth="4681" pageHeight="3300" background="none" math="0" shadow="0">
      <root>
        <mxCell id="WIyWlLk6GJQsqaUBKTNV-0" />
        <mxCell id="WIyWlLk6GJQsqaUBKTNV-1" parent="WIyWlLk6GJQsqaUBKTNV-0" />
        <mxCell id="86CAOPFkjnfypf_7lXeF-4" value="&lt;font color=&quot;#b266ff&quot;&gt;&lt;span style=&quot;font-size: 16px;&quot;&gt;&lt;b&gt;F/D Register&lt;/b&gt;&lt;/span&gt;&lt;/font&gt;" style="rounded=0;whiteSpace=wrap;html=1;direction=south;fillColor=#cce5ff;strokeColor=#36393d;shadow=0;glass=0;points=[[0,0,0,0,0],[0,0.25,0,0,0],[0,0.5,0,0,0],[0,0.75,0,0,0],[0,1,0,0,0],[0.25,0,0,0,0],[0.25,1,0,0,0],[0.5,0,0,0,0],[0.5,1,0,0,0],[0.75,0,0,0,0],[0.75,1,0,0,0],[1,0,0,0,0],[1,0.25,0,0,0],[1,0.5,0,0,0],[1,0.75,0,0,0],[1,1,0,0,0]];container=0;" parent="WIyWlLk6GJQsqaUBKTNV-1" vertex="1">
          <mxGeometry x="2934.439655172414" y="-292.9474551971325" width="136.20689655172416" height="993.7948028673836" as="geometry" />
        </mxCell>
        <mxCell id="86CAOPFkjnfypf_7lXeF-7" value="&lt;font style=&quot;font-size: 40px;&quot; color=&quot;#b266ff&quot;&gt;&lt;b style=&quot;font-size: 40px;&quot;&gt;Register File&lt;/b&gt;&lt;/font&gt;" style="rounded=1;whiteSpace=wrap;html=1;direction=south;fillColor=#f5f5f5;strokeColor=#666666;fontColor=#333333;shadow=0;glass=0;container=0;fontSize=40;" parent="WIyWlLk6GJQsqaUBKTNV-1" vertex="1">
          <mxGeometry x="3428.189655172414" y="-67.75537634408579" width="527.801724137931" height="543.3960573476703" as="geometry" />
        </mxCell>
        <mxCell id="86CAOPFkjnfypf_7lXeF-8" value="&lt;font color=&quot;#b266ff&quot;&gt;&lt;span style=&quot;font-size: 16px;&quot;&gt;&lt;b&gt;D/E Register&lt;/b&gt;&lt;/span&gt;&lt;/font&gt;" style="rounded=0;whiteSpace=wrap;html=1;direction=south;fillColor=#cce5ff;strokeColor=#36393d;shadow=0;glass=0;points=[[0,0,0,0,0],[0,0.25,0,0,0],[0,0.5,0,0,0],[0,0.75,0,0,0],[0,1,0,0,0],[0.25,0,0,0,0],[0.25,1,0,0,0],[0.5,0,0,0,0],[0.5,1,0,0,0],[0.75,0,0,0,0],[0.75,1,0,0,0],[1,0,0,0,0],[1,0.25,0,0,0],[1,0.5,0,0,0],[1,0.75,0,0,0],[1,1,0,0,0]];container=0;" parent="WIyWlLk6GJQsqaUBKTNV-1" vertex="1">
          <mxGeometry x="4517.8448275862065" y="-292.9474551971325" width="136.20689655172416" height="993.7948028673836" as="geometry" />
        </mxCell>
        <mxCell id="86CAOPFkjnfypf_7lXeF-10" value="&lt;b style=&quot;font-size: 40px;&quot;&gt;&lt;font color=&quot;#b266ff&quot; style=&quot;font-size: 40px;&quot;&gt;ALU&lt;/font&gt;&lt;/b&gt;" style="shape=trapezoid;perimeter=trapezoidPerimeter;whiteSpace=wrap;html=1;fixedSize=1;direction=south;fillColor=#ffcc99;strokeColor=#36393d;container=0;fontSize=40;" parent="WIyWlLk6GJQsqaUBKTNV-1" vertex="1">
          <mxGeometry x="5352.11" y="-72.13" width="272.41" height="552.13" as="geometry" />
        </mxCell>
        <mxCell id="86CAOPFkjnfypf_7lXeF-11" value="&lt;font color=&quot;#b266ff&quot;&gt;&lt;span style=&quot;font-size: 16px;&quot;&gt;&lt;b&gt;E/M Register&lt;/b&gt;&lt;/span&gt;&lt;/font&gt;" style="rounded=0;whiteSpace=wrap;html=1;direction=south;fillColor=#cce5ff;strokeColor=#36393d;shadow=0;glass=0;points=[[0,0,0,0,0],[0,0.25,0,0,0],[0,0.5,0,0,0],[0,0.75,0,0,0],[0,1,0,0,0],[0.25,0,0,0,0],[0.25,1,0,0,0],[0.5,0,0,0,0],[0.5,1,0,0,0],[0.75,0,0,0,0],[0.75,1,0,0,0],[1,0,0,0,0],[1,0.25,0,0,0],[1,0.5,0,0,0],[1,0.75,0,0,0],[1,1,0,0,0]];container=0;" parent="WIyWlLk6GJQsqaUBKTNV-1" vertex="1">
          <mxGeometry x="5965.043103448276" y="-292.9474551971325" width="136.20689655172416" height="993.7948028673836" as="geometry" />
        </mxCell>
        <mxCell id="86CAOPFkjnfypf_7lXeF-12" value="&lt;font color=&quot;#b266ff&quot;&gt;&lt;span style=&quot;font-size: 16px;&quot;&gt;&lt;b&gt;M/WB Register&lt;/b&gt;&lt;/span&gt;&lt;/font&gt;" style="rounded=0;whiteSpace=wrap;html=1;direction=south;fillColor=#cce5ff;strokeColor=#36393d;shadow=0;glass=0;points=[[0,0,0,0,0],[0,0.25,0,0,0],[0,0.5,0,0,0],[0,0.75,0,0,0],[0,1,0,0,0],[0.25,0,0,0,0],[0.25,1,0,0,0],[0.5,0,0,0,0],[0.5,1,0,0,0],[0.75,0,0,0,0],[0.75,1,0,0,0],[1,0,0,0,0],[1,0.25,0,0,0],[1,0.5,0,0,0],[1,0.75,0,0,0],[1,1,0,0,0]];container=0;" parent="WIyWlLk6GJQsqaUBKTNV-1" vertex="1">
          <mxGeometry x="7497.370689655173" y="-306.63082437275966" width="136.20689655172416" height="993.7948028673836" as="geometry" />
        </mxCell>
        <mxCell id="86CAOPFkjnfypf_7lXeF-13" value="&lt;font size=&quot;1&quot; color=&quot;#b266ff&quot;&gt;&lt;b style=&quot;font-size: 20px;&quot;&gt;Memory&lt;/b&gt;&lt;/font&gt;" style="rounded=1;whiteSpace=wrap;html=1;direction=south;fillColor=#f5f5f5;strokeColor=#666666;fontColor=#333333;shadow=0;glass=0;container=0;" parent="WIyWlLk6GJQsqaUBKTNV-1" vertex="1">
          <mxGeometry x="6609.44" y="-58.6400000000001" width="260.56" height="543.4" as="geometry" />
        </mxCell>
        <mxCell id="86CAOPFkjnfypf_7lXeF-17" style="edgeStyle=orthogonalEdgeStyle;rounded=0;orthogonalLoop=1;jettySize=auto;html=1;entryX=0.5;entryY=1;entryDx=0;entryDy=0;strokeColor=#CC0000;strokeWidth=5;fillColor=#CC0000;gradientColor=none;flowAnimation=0;" parent="WIyWlLk6GJQsqaUBKTNV-1" target="86CAOPFkjnfypf_7lXeF-129" edge="1">
          <mxGeometry relative="1" as="geometry">
            <mxPoint x="3530.344827586207" y="1283.4408602150538" as="sourcePoint" />
            <mxPoint x="3002.543103448276" y="1852.3655913978496" as="targetPoint" />
            <Array as="points">
              <mxPoint x="3532.0474137931037" y="1511.0107526881725" />
              <mxPoint x="3343.0603448275865" y="1511.0107526881725" />
              <mxPoint x="3343.0603448275865" y="1859.6594982078855" />
            </Array>
          </mxGeometry>
        </mxCell>
        <mxCell id="86CAOPFkjnfypf_7lXeF-19" style="edgeStyle=orthogonalEdgeStyle;rounded=0;orthogonalLoop=1;jettySize=auto;html=1;entryX=0.75;entryY=0;entryDx=0;entryDy=0;strokeColor=#6666FF;strokeWidth=5;fillColor=#CC0000;gradientColor=none;flowAnimation=0;" parent="WIyWlLk6GJQsqaUBKTNV-1" target="86CAOPFkjnfypf_7lXeF-152" edge="1">
          <mxGeometry relative="1" as="geometry">
            <mxPoint x="4807.284482758621" y="-233.69175627240134" as="sourcePoint" />
            <mxPoint x="5113.75" y="-1666.9444444444443" as="targetPoint" />
            <Array as="points">
              <mxPoint x="4807.284482758621" y="-1429.8924731182797" />
              <mxPoint x="4007.0689655172414" y="-1429.8924731182797" />
              <mxPoint x="4007.0689655172414" y="-1575.7706093189963" />
            </Array>
          </mxGeometry>
        </mxCell>
        <mxCell id="86CAOPFkjnfypf_7lXeF-43" style="edgeStyle=orthogonalEdgeStyle;rounded=0;orthogonalLoop=1;jettySize=auto;html=1;entryX=1;entryY=0.5;entryDx=0;entryDy=0;strokeColor=#CC6600;strokeWidth=5;fillColor=#CC0000;gradientColor=none;flowAnimation=0;exitX=0.89;exitY=-0.032;exitDx=0;exitDy=0;exitPerimeter=0;" parent="WIyWlLk6GJQsqaUBKTNV-1" source="86CAOPFkjnfypf_7lXeF-4" target="86CAOPFkjnfypf_7lXeF-22" edge="1">
          <mxGeometry relative="1" as="geometry">
            <mxPoint x="2389.612068965517" y="554.0501792114696" as="sourcePoint" />
            <mxPoint x="2679.051724137931" y="554.0501792114696" as="targetPoint" />
            <Array as="points">
              <mxPoint x="3172.801724137931" y="591.9784946236559" />
              <mxPoint x="3172.801724137931" y="758.2795698924733" />
              <mxPoint x="2534.331896551724" y="758.2795698924733" />
            </Array>
          </mxGeometry>
        </mxCell>
        <mxCell id="86CAOPFkjnfypf_7lXeF-44" value="&lt;b&gt;&lt;font color=&quot;#b266ff&quot; style=&quot;font-size: 18px;&quot;&gt;MUX&lt;/font&gt;&lt;/b&gt;" style="shape=trapezoid;perimeter=trapezoidPerimeter;whiteSpace=wrap;html=1;fixedSize=1;direction=south;fillColor=#ffcccc;strokeColor=#36393d;container=0;" parent="WIyWlLk6GJQsqaUBKTNV-1" vertex="1">
          <mxGeometry x="4177.327586206897" y="174.7670250896058" width="187.2844827586207" height="218.8172043010753" as="geometry" />
        </mxCell>
        <mxCell id="86CAOPFkjnfypf_7lXeF-46" style="edgeStyle=orthogonalEdgeStyle;rounded=0;orthogonalLoop=1;jettySize=auto;html=1;strokeColor=#CC0000;strokeWidth=5;fillColor=#CC0000;gradientColor=none;flowAnimation=0;entryX=0;entryY=0.5;entryDx=0;entryDy=0;" parent="WIyWlLk6GJQsqaUBKTNV-1" target="86CAOPFkjnfypf_7lXeF-102" edge="1">
          <mxGeometry relative="1" as="geometry">
            <mxPoint x="2321.5086206896553" y="364.4086021505377" as="sourcePoint" />
            <mxPoint x="4143.275862068966" y="145.5913978494625" as="targetPoint" />
            <Array as="points">
              <mxPoint x="2321" y="861" />
              <mxPoint x="3180" y="861" />
              <mxPoint x="3180" y="1269" />
            </Array>
          </mxGeometry>
        </mxCell>
        <mxCell id="86CAOPFkjnfypf_7lXeF-47" style="edgeStyle=orthogonalEdgeStyle;rounded=0;orthogonalLoop=1;jettySize=auto;html=1;entryX=0.25;entryY=1;entryDx=0;entryDy=0;strokeColor=#CC0000;strokeWidth=5;fillColor=#CC0000;gradientColor=none;flowAnimation=0;exitX=0.75;exitY=0;exitDx=0;exitDy=0;" parent="WIyWlLk6GJQsqaUBKTNV-1" source="86CAOPFkjnfypf_7lXeF-7" target="86CAOPFkjnfypf_7lXeF-44" edge="1">
          <mxGeometry relative="1" as="geometry">
            <mxPoint x="1623.448275862069" y="874.9820788530469" as="sourcePoint" />
            <mxPoint x="1912.8879310344828" y="874.9820788530469" as="targetPoint" />
          </mxGeometry>
        </mxCell>
        <mxCell id="86CAOPFkjnfypf_7lXeF-50" style="edgeStyle=orthogonalEdgeStyle;rounded=0;orthogonalLoop=1;jettySize=auto;html=1;entryX=0.427;entryY=1.037;entryDx=0;entryDy=0;strokeColor=#CC0000;strokeWidth=5;fillColor=#CC0000;gradientColor=none;flowAnimation=0;exitX=0.369;exitY=-0.015;exitDx=0;exitDy=0;exitPerimeter=0;entryPerimeter=0;" parent="WIyWlLk6GJQsqaUBKTNV-1" source="86CAOPFkjnfypf_7lXeF-7" target="86CAOPFkjnfypf_7lXeF-8" edge="1">
          <mxGeometry relative="1" as="geometry">
            <mxPoint x="4041.1206896551726" y="-47.97430107526884" as="sourcePoint" />
            <mxPoint x="4262.456896551725" y="-157.38290322580633" as="targetPoint" />
          </mxGeometry>
        </mxCell>
        <mxCell id="86CAOPFkjnfypf_7lXeF-52" style="edgeStyle=orthogonalEdgeStyle;rounded=0;orthogonalLoop=1;jettySize=auto;html=1;entryX=1;entryY=0.5;entryDx=0;entryDy=0;strokeColor=#CC6600;strokeWidth=5;fillColor=#CC0000;gradientColor=none;flowAnimation=0;" parent="WIyWlLk6GJQsqaUBKTNV-1" target="86CAOPFkjnfypf_7lXeF-44" edge="1">
          <mxGeometry relative="1" as="geometry">
            <mxPoint x="3172.801724137931" y="759.7383512544807" as="sourcePoint" />
            <mxPoint x="3564.396551724138" y="1064.6236559139788" as="targetPoint" />
          </mxGeometry>
        </mxCell>
        <mxCell id="86CAOPFkjnfypf_7lXeF-58" value="&lt;b&gt;&lt;font style=&quot;font-size: 20px;&quot;&gt;Control Unit&lt;/font&gt;&lt;/b&gt;" style="rounded=0;whiteSpace=wrap;html=1;direction=south;fillColor=#f5f5f5;strokeColor=#666666;fontColor=#B266FF;shadow=0;glass=0;container=0;" parent="WIyWlLk6GJQsqaUBKTNV-1" vertex="1">
          <mxGeometry x="3411.1637931034484" y="-802.6164874551971" width="715.0862068965517" height="233.40501792114696" as="geometry" />
        </mxCell>
        <mxCell id="86CAOPFkjnfypf_7lXeF-60" style="edgeStyle=orthogonalEdgeStyle;rounded=0;orthogonalLoop=1;jettySize=auto;html=1;strokeColor=#6666FF;strokeWidth=5;fillColor=#CC0000;gradientColor=none;flowAnimation=0;exitX=0.5;exitY=0;exitDx=0;exitDy=0;entryX=0.113;entryY=0.966;entryDx=0;entryDy=0;entryPerimeter=0;" parent="WIyWlLk6GJQsqaUBKTNV-1" source="86CAOPFkjnfypf_7lXeF-160" target="86CAOPFkjnfypf_7lXeF-8" edge="1">
          <mxGeometry relative="1" as="geometry">
            <mxPoint x="4126.25" y="-744.2068817204301" as="sourcePoint" />
            <mxPoint x="4505.994827586207" y="-180.30765232974932" as="targetPoint" />
            <Array as="points">
              <mxPoint x="4279.48275862069" y="-401.4516129032256" />
              <mxPoint x="4279.48275862069" y="-179.71684587813616" />
            </Array>
          </mxGeometry>
        </mxCell>
        <mxCell id="86CAOPFkjnfypf_7lXeF-62" style="edgeStyle=orthogonalEdgeStyle;rounded=0;orthogonalLoop=1;jettySize=auto;html=1;strokeColor=#cc0000;strokeWidth=5;fillColor=#CC0000;gradientColor=none;flowAnimation=0;exitX=0.5;exitY=0;exitDx=0;exitDy=0;exitPerimeter=0;entryX=0.139;entryY=1.021;entryDx=0;entryDy=0;entryPerimeter=0;" parent="WIyWlLk6GJQsqaUBKTNV-1" source="86CAOPFkjnfypf_7lXeF-8" target="86CAOPFkjnfypf_7lXeF-116" edge="1">
          <mxGeometry relative="1" as="geometry">
            <mxPoint x="3172.801724137931" y="131.00358422939075" as="sourcePoint" />
            <mxPoint x="5113.75" y="203.9426523297493" as="targetPoint" />
          </mxGeometry>
        </mxCell>
        <mxCell id="86CAOPFkjnfypf_7lXeF-63" style="edgeStyle=orthogonalEdgeStyle;rounded=0;orthogonalLoop=1;jettySize=auto;html=1;strokeColor=#cc0000;strokeWidth=5;fillColor=#CC0000;gradientColor=none;flowAnimation=0;exitX=0.43;exitY=-0.025;exitDx=0;exitDy=0;exitPerimeter=0;entryX=0.25;entryY=1;entryDx=0;entryDy=0;" parent="WIyWlLk6GJQsqaUBKTNV-1" source="86CAOPFkjnfypf_7lXeF-8" target="86CAOPFkjnfypf_7lXeF-177" edge="1">
          <mxGeometry relative="1" as="geometry">
            <mxPoint x="4943.491379310345" y="-58.637992831541396" as="sourcePoint" />
            <mxPoint x="5352.112068965517" y="132.46236559139788" as="targetPoint" />
          </mxGeometry>
        </mxCell>
        <mxCell id="86CAOPFkjnfypf_7lXeF-64" style="edgeStyle=orthogonalEdgeStyle;rounded=0;orthogonalLoop=1;jettySize=auto;html=1;entryX=0.5;entryY=1;entryDx=0;entryDy=0;strokeColor=#cc0000;strokeWidth=5;fillColor=#CC0000;gradientColor=none;flowAnimation=0;exitX=0.5;exitY=0;exitDx=0;exitDy=0;entryPerimeter=0;" parent="WIyWlLk6GJQsqaUBKTNV-1" source="86CAOPFkjnfypf_7lXeF-10" target="86CAOPFkjnfypf_7lXeF-11" edge="1">
          <mxGeometry relative="1" as="geometry">
            <mxPoint x="4671.077586206897" y="218.53046594982084" as="sourcePoint" />
            <mxPoint x="4977.543103448276" y="218.53046594982084" as="targetPoint" />
          </mxGeometry>
        </mxCell>
        <mxCell id="86CAOPFkjnfypf_7lXeF-66" style="edgeStyle=orthogonalEdgeStyle;rounded=0;orthogonalLoop=1;jettySize=auto;html=1;strokeColor=#660000;strokeWidth=5;fillColor=#CC0000;gradientColor=none;flowAnimation=0;entryX=0.314;entryY=0.991;entryDx=0;entryDy=0;entryPerimeter=0;exitX=0.5;exitY=0;exitDx=0;exitDy=0;exitPerimeter=0;" parent="WIyWlLk6GJQsqaUBKTNV-1" source="86CAOPFkjnfypf_7lXeF-11" target="86CAOPFkjnfypf_7lXeF-13" edge="1">
          <mxGeometry relative="1" as="geometry">
            <mxPoint x="6135.301724137931" y="116.41577060931922" as="sourcePoint" />
            <mxPoint x="6426.443965517242" y="116.41577060931922" as="targetPoint" />
          </mxGeometry>
        </mxCell>
        <mxCell id="86CAOPFkjnfypf_7lXeF-68" style="edgeStyle=orthogonalEdgeStyle;rounded=0;orthogonalLoop=1;jettySize=auto;html=1;strokeColor=#cc0000;strokeWidth=5;fillColor=#CC0000;gradientColor=none;flowAnimation=0;exitX=0.294;exitY=0.003;exitDx=0;exitDy=0;exitPerimeter=0;entryX=0.447;entryY=0.98;entryDx=0;entryDy=0;entryPerimeter=0;" parent="WIyWlLk6GJQsqaUBKTNV-1" source="86CAOPFkjnfypf_7lXeF-13" target="86CAOPFkjnfypf_7lXeF-12" edge="1">
          <mxGeometry relative="1" as="geometry">
            <mxPoint x="7035.969827586207" y="94.53405017921159" as="sourcePoint" />
            <mxPoint x="7412.241379310345" y="131.00358422939075" as="targetPoint" />
            <Array as="points">
              <mxPoint x="7000.2155172413795" y="101.82795698924747" />
              <mxPoint x="7293.060344827587" y="101.82795698924747" />
              <mxPoint x="7293.060344827587" y="136.8387096774195" />
            </Array>
          </mxGeometry>
        </mxCell>
        <mxCell id="86CAOPFkjnfypf_7lXeF-70" style="edgeStyle=orthogonalEdgeStyle;rounded=0;orthogonalLoop=1;jettySize=auto;html=1;strokeColor=#cc0000;strokeWidth=5;fillColor=#CC0000;gradientColor=none;flowAnimation=0;entryX=1;entryY=0.5;entryDx=0;entryDy=0;exitX=0.5;exitY=0;exitDx=0;exitDy=0;" parent="WIyWlLk6GJQsqaUBKTNV-1" source="86CAOPFkjnfypf_7lXeF-149" target="86CAOPFkjnfypf_7lXeF-7" edge="1">
          <mxGeometry relative="1" as="geometry">
            <mxPoint x="7293.060344827587" y="28.888888888888914" as="sourcePoint" />
            <mxPoint x="4926.4655172413795" y="1447.1486453258012" as="targetPoint" />
            <Array as="points">
              <mxPoint x="8348.66379310345" y="335.2329749103942" />
              <mxPoint x="8467.844827586207" y="335.2329749103942" />
              <mxPoint x="8467.844827586207" y="2114.9462365591403" />
              <mxPoint x="3692.0905172413795" y="2114.9462365591403" />
            </Array>
          </mxGeometry>
        </mxCell>
        <mxCell id="86CAOPFkjnfypf_7lXeF-71" style="edgeStyle=orthogonalEdgeStyle;rounded=0;orthogonalLoop=1;jettySize=auto;html=1;strokeColor=#660000;strokeWidth=5;fillColor=#CC0000;gradientColor=none;flowAnimation=0;exitX=0.5;exitY=0;exitDx=0;exitDy=0;entryX=0.992;entryY=0.327;entryDx=0;entryDy=0;entryPerimeter=0;" parent="WIyWlLk6GJQsqaUBKTNV-1" source="86CAOPFkjnfypf_7lXeF-249" target="86CAOPFkjnfypf_7lXeF-7" edge="1">
          <mxGeometry relative="1" as="geometry">
            <mxPoint x="7156.853448275862" y="335.2329749103942" as="sourcePoint" />
            <mxPoint x="7361.163793103448" y="670.7526881720432" as="targetPoint" />
            <Array as="points">
              <mxPoint x="8433.793103448275" y="794.7491039426527" />
              <mxPoint x="8433.793103448275" y="991.68458781362" />
              <mxPoint x="7803.8362068965525" y="991.68458781362" />
              <mxPoint x="7803.8362068965525" y="1239.677419354839" />
              <mxPoint x="3784.0301724137935" y="1239.677419354839" />
            </Array>
          </mxGeometry>
        </mxCell>
        <mxCell id="86CAOPFkjnfypf_7lXeF-75" style="edgeStyle=orthogonalEdgeStyle;rounded=0;orthogonalLoop=1;jettySize=auto;html=1;strokeColor=#6666FF;strokeWidth=5;fillColor=#CC0000;gradientColor=none;flowAnimation=0;exitX=0.045;exitY=0;exitDx=0;exitDy=0;exitPerimeter=0;" parent="WIyWlLk6GJQsqaUBKTNV-1" source="86CAOPFkjnfypf_7lXeF-11" edge="1">
          <mxGeometry relative="1" as="geometry">
            <mxPoint x="6271.508620689656" y="-160.75268817204278" as="sourcePoint" />
            <mxPoint x="7497.370689655173" y="-248.2795698924731" as="targetPoint" />
            <Array as="points" />
          </mxGeometry>
        </mxCell>
        <mxCell id="86CAOPFkjnfypf_7lXeF-76" style="edgeStyle=orthogonalEdgeStyle;rounded=0;orthogonalLoop=1;jettySize=auto;html=1;strokeColor=#6666FF;strokeWidth=5;fillColor=#CC0000;gradientColor=none;flowAnimation=0;exitX=0.153;exitY=0.06;exitDx=0;exitDy=0;exitPerimeter=0;entryX=1;entryY=0.75;entryDx=0;entryDy=0;" parent="WIyWlLk6GJQsqaUBKTNV-1" source="86CAOPFkjnfypf_7lXeF-12" target="86CAOPFkjnfypf_7lXeF-7" edge="1">
          <mxGeometry relative="1" as="geometry">
            <mxPoint x="7173.879310344828" y="-159.10426523297474" as="sourcePoint" />
            <mxPoint x="8433.793103448275" y="772.8673835125451" as="targetPoint" />
            <Array as="points">
              <mxPoint x="8025.172413793104" y="-154.91756272401426" />
              <mxPoint x="8025.172413793104" y="1400.1433691756274" />
              <mxPoint x="3560.991379310345" y="1400.1433691756274" />
            </Array>
          </mxGeometry>
        </mxCell>
        <mxCell id="86CAOPFkjnfypf_7lXeF-78" style="edgeStyle=orthogonalEdgeStyle;rounded=0;orthogonalLoop=1;jettySize=auto;html=1;strokeColor=#660000;strokeWidth=5;fillColor=#CC0000;gradientColor=none;flowAnimation=0;exitX=0.939;exitY=0.025;exitDx=0;exitDy=0;exitPerimeter=0;entryX=0.951;entryY=0.992;entryDx=0;entryDy=0;entryPerimeter=0;" parent="WIyWlLk6GJQsqaUBKTNV-1" source="86CAOPFkjnfypf_7lXeF-11" target="86CAOPFkjnfypf_7lXeF-12" edge="1">
          <mxGeometry relative="1" as="geometry">
            <mxPoint x="6152.327586206897" y="539.4623655913979" as="sourcePoint" />
            <mxPoint x="6843.85" y="553.7875985663081" as="targetPoint" />
            <Array as="points" />
          </mxGeometry>
        </mxCell>
        <mxCell id="86CAOPFkjnfypf_7lXeF-83" style="edgeStyle=orthogonalEdgeStyle;rounded=0;orthogonalLoop=1;jettySize=auto;html=1;entryX=0.176;entryY=1.058;entryDx=0;entryDy=0;strokeColor=#CC0000;strokeWidth=5;fillColor=#CC0000;gradientColor=none;flowAnimation=0;exitX=1;exitY=0.5;exitDx=0;exitDy=0;entryPerimeter=0;" parent="WIyWlLk6GJQsqaUBKTNV-1" source="86CAOPFkjnfypf_7lXeF-82" target="86CAOPFkjnfypf_7lXeF-4" edge="1">
          <mxGeometry relative="1" as="geometry">
            <mxPoint x="2185.301724137931" y="-102.40143369175621" as="sourcePoint" />
            <mxPoint x="2389.612068965517" y="-101.36569892473108" as="targetPoint" />
          </mxGeometry>
        </mxCell>
        <mxCell id="86CAOPFkjnfypf_7lXeF-301" value="&lt;font color=&quot;#9999ff&quot; style=&quot;font-size: 22px;&quot;&gt;Propagate&amp;nbsp; &amp;nbsp;PC + 1 to use in branching&lt;/font&gt;" style="edgeLabel;html=1;align=center;verticalAlign=middle;resizable=0;points=[];" parent="86CAOPFkjnfypf_7lXeF-83" vertex="1" connectable="0">
          <mxGeometry x="0.0476" y="9" relative="1" as="geometry">
            <mxPoint x="-120" y="-13" as="offset" />
          </mxGeometry>
        </mxCell>
        <mxCell id="86CAOPFkjnfypf_7lXeF-306" value="&lt;font color=&quot;#9999ff&quot; style=&quot;font-size: 22px;&quot;&gt;Branching&amp;nbsp; &amp;nbsp; &amp;nbsp;signal&lt;/font&gt;" style="edgeLabel;html=1;align=center;verticalAlign=middle;resizable=0;points=[];" parent="86CAOPFkjnfypf_7lXeF-83" vertex="1" connectable="0">
          <mxGeometry x="0.0476" y="9" relative="1" as="geometry">
            <mxPoint x="-1461" y="-483" as="offset" />
          </mxGeometry>
        </mxCell>
        <mxCell id="86CAOPFkjnfypf_7lXeF-307" value="&lt;font color=&quot;#9999ff&quot; style=&quot;font-size: 22px;&quot;&gt;Hazard Detection&amp;nbsp; &amp;nbsp; &amp;nbsp; &amp;nbsp; PC Signal&lt;/font&gt;" style="edgeLabel;html=1;align=center;verticalAlign=middle;resizable=0;points=[];" parent="86CAOPFkjnfypf_7lXeF-83" vertex="1" connectable="0">
          <mxGeometry x="0.0476" y="9" relative="1" as="geometry">
            <mxPoint x="-1071" y="-743" as="offset" />
          </mxGeometry>
        </mxCell>
        <mxCell id="86CAOPFkjnfypf_7lXeF-84" style="edgeStyle=orthogonalEdgeStyle;rounded=0;orthogonalLoop=1;jettySize=auto;html=1;strokeColor=#CC0000;strokeWidth=5;fillColor=#CC0000;gradientColor=none;flowAnimation=0;entryX=0.249;entryY=1.009;entryDx=0;entryDy=0;entryPerimeter=0;" parent="WIyWlLk6GJQsqaUBKTNV-1" target="86CAOPFkjnfypf_7lXeF-81" edge="1">
          <mxGeometry relative="1" as="geometry">
            <mxPoint x="2338.5344827586205" y="-116.98924731182774" as="sourcePoint" />
            <mxPoint x="942.4137931034484" y="276.88172043010763" as="targetPoint" />
            <Array as="points">
              <mxPoint x="2338" y="-261" />
              <mxPoint x="721" y="-261" />
              <mxPoint x="721" y="200" />
            </Array>
          </mxGeometry>
        </mxCell>
        <mxCell id="86CAOPFkjnfypf_7lXeF-90" style="edgeStyle=orthogonalEdgeStyle;rounded=0;orthogonalLoop=1;jettySize=auto;html=1;strokeColor=#6666FF;strokeWidth=5;fillColor=#CC0000;gradientColor=none;flowAnimation=0;entryX=0;entryY=0.5;entryDx=0;entryDy=0;exitX=1;exitY=0.5;exitDx=0;exitDy=0;exitPerimeter=0;" parent="WIyWlLk6GJQsqaUBKTNV-1" source="86CAOPFkjnfypf_7lXeF-147" target="86CAOPFkjnfypf_7lXeF-81" edge="1">
          <mxGeometry relative="1" as="geometry">
            <mxPoint x="1214.8275862068967" y="-44.05017921146941" as="sourcePoint" />
            <mxPoint x="1146.7241379310344" y="422.75985663082474" as="targetPoint" />
            <Array as="points">
              <mxPoint x="7259.008620689656" y="-474.3906810035842" />
              <mxPoint x="7259.008620689656" y="-1327.7777777777778" />
              <mxPoint x="1104.1594827586207" y="-1327.7777777777778" />
            </Array>
          </mxGeometry>
        </mxCell>
        <mxCell id="86CAOPFkjnfypf_7lXeF-92" style="edgeStyle=orthogonalEdgeStyle;rounded=0;orthogonalLoop=1;jettySize=auto;html=1;entryX=0.186;entryY=1.019;entryDx=0;entryDy=0;strokeColor=#CC0000;strokeWidth=5;fillColor=#CC0000;gradientColor=none;flowAnimation=0;exitX=0.186;exitY=-0.042;exitDx=0;exitDy=0;entryPerimeter=0;exitPerimeter=0;" parent="WIyWlLk6GJQsqaUBKTNV-1" source="86CAOPFkjnfypf_7lXeF-4" target="86CAOPFkjnfypf_7lXeF-8" edge="1">
          <mxGeometry relative="1" as="geometry">
            <mxPoint x="3257.9310344827586" y="-189.9283154121863" as="sourcePoint" />
            <mxPoint x="3520.129310344828" y="-188.46953405017916" as="targetPoint" />
          </mxGeometry>
        </mxCell>
        <mxCell id="86CAOPFkjnfypf_7lXeF-95" style="edgeStyle=orthogonalEdgeStyle;rounded=0;orthogonalLoop=1;jettySize=auto;html=1;strokeColor=#660000;strokeWidth=5;fillColor=#CC0000;gradientColor=none;flowAnimation=0;entryX=0.131;entryY=1.004;entryDx=0;entryDy=0;entryPerimeter=0;exitX=0.471;exitY=-0.024;exitDx=0;exitDy=0;exitPerimeter=0;" parent="WIyWlLk6GJQsqaUBKTNV-1" source="86CAOPFkjnfypf_7lXeF-4" target="86CAOPFkjnfypf_7lXeF-7" edge="1">
          <mxGeometry relative="1" as="geometry">
            <mxPoint x="3104.6982758620693" y="173.96469534050198" as="sourcePoint" />
            <mxPoint x="3393.6101293103443" y="-6.986191756271637" as="targetPoint" />
          </mxGeometry>
        </mxCell>
        <mxCell id="86CAOPFkjnfypf_7lXeF-96" style="edgeStyle=orthogonalEdgeStyle;rounded=0;orthogonalLoop=1;jettySize=auto;html=1;strokeColor=#660000;strokeWidth=5;fillColor=#CC0000;gradientColor=none;flowAnimation=0;entryX=0.25;entryY=1;entryDx=0;entryDy=0;exitX=0.486;exitY=0.052;exitDx=0;exitDy=0;exitPerimeter=0;" parent="WIyWlLk6GJQsqaUBKTNV-1" source="86CAOPFkjnfypf_7lXeF-4" edge="1">
          <mxGeometry relative="1" as="geometry">
            <mxPoint x="3138.75" y="188.55250896057373" as="sourcePoint" />
            <mxPoint x="3428.189655172414" y="52.70349462365607" as="targetPoint" />
            <Array as="points">
              <mxPoint x="3291.9827586206898" y="190.81362007168468" />
              <mxPoint x="3291.9827586206898" y="52.22939068100368" />
            </Array>
          </mxGeometry>
        </mxCell>
        <mxCell id="86CAOPFkjnfypf_7lXeF-97" style="edgeStyle=orthogonalEdgeStyle;rounded=0;orthogonalLoop=1;jettySize=auto;html=1;entryX=0.5;entryY=1;entryDx=0;entryDy=0;strokeColor=#CC0000;strokeWidth=5;fillColor=#CC0000;gradientColor=none;flowAnimation=0;exitX=0.445;exitY=-0.054;exitDx=0;exitDy=0;exitPerimeter=0;" parent="WIyWlLk6GJQsqaUBKTNV-1" source="86CAOPFkjnfypf_7lXeF-4" target="86CAOPFkjnfypf_7lXeF-58" edge="1">
          <mxGeometry relative="1" as="geometry">
            <mxPoint x="3155.7758620689656" y="203.9426523297493" as="sourcePoint" />
            <mxPoint x="4508.7189655172415" y="-58.76928315412192" as="targetPoint" />
            <Array as="points">
              <mxPoint x="3155.7758620689656" y="149.96774193548413" />
              <mxPoint x="3155.7758620689656" y="-685.9139784946235" />
            </Array>
          </mxGeometry>
        </mxCell>
        <mxCell id="86CAOPFkjnfypf_7lXeF-98" style="edgeStyle=orthogonalEdgeStyle;rounded=0;orthogonalLoop=1;jettySize=auto;html=1;entryX=0.883;entryY=1.033;entryDx=0;entryDy=0;strokeColor=#660000;strokeWidth=5;fillColor=#CC0000;gradientColor=none;flowAnimation=0;entryPerimeter=0;exitX=0.524;exitY=-0.017;exitDx=0;exitDy=0;exitPerimeter=0;" parent="WIyWlLk6GJQsqaUBKTNV-1" source="86CAOPFkjnfypf_7lXeF-4" target="86CAOPFkjnfypf_7lXeF-8" edge="1">
          <mxGeometry relative="1" as="geometry">
            <mxPoint x="3206.8534482758623" y="233.1182795698926" as="sourcePoint" />
            <mxPoint x="4490.603448275862" y="597.8136200716849" as="targetPoint" />
            <Array as="points">
              <mxPoint x="3206.8534482758623" y="227.28315412186384" />
              <mxPoint x="3206.8534482758623" y="584.68458781362" />
            </Array>
          </mxGeometry>
        </mxCell>
        <mxCell id="86CAOPFkjnfypf_7lXeF-104" style="edgeStyle=orthogonalEdgeStyle;rounded=0;orthogonalLoop=1;jettySize=auto;html=1;strokeColor=#CC0000;strokeWidth=5;fillColor=#CC0000;gradientColor=none;flowAnimation=0;exitX=1;exitY=0.5;exitDx=0;exitDy=0;entryX=0.618;entryY=0.986;entryDx=0;entryDy=0;entryPerimeter=0;" parent="WIyWlLk6GJQsqaUBKTNV-1" source="86CAOPFkjnfypf_7lXeF-102" target="86CAOPFkjnfypf_7lXeF-44" edge="1">
          <mxGeometry relative="1" as="geometry">
            <mxPoint x="3836.8103448275865" y="313.351254480287" as="sourcePoint" />
            <mxPoint x="4218.496120689655" y="959.2996415770604" as="targetPoint" />
            <Array as="points">
              <mxPoint x="3445" y="1283" />
              <mxPoint x="4120" y="1283" />
              <mxPoint x="4120" y="310" />
            </Array>
          </mxGeometry>
        </mxCell>
        <mxCell id="86CAOPFkjnfypf_7lXeF-107" style="edgeStyle=orthogonalEdgeStyle;rounded=0;orthogonalLoop=1;jettySize=auto;html=1;entryX=0.056;entryY=0.982;entryDx=0;entryDy=0;strokeColor=#6666FF;strokeWidth=5;fillColor=#CC0000;gradientColor=none;flowAnimation=0;entryPerimeter=0;" parent="WIyWlLk6GJQsqaUBKTNV-1" edge="1">
          <mxGeometry relative="1" as="geometry">
            <mxPoint x="4430" y="-180" as="sourcePoint" />
            <mxPoint x="4517.8448275862065" y="-248.26498207885288" as="targetPoint" />
            <Array as="points">
              <mxPoint x="4430" y="-186" />
              <mxPoint x="4430" y="-248" />
            </Array>
          </mxGeometry>
        </mxCell>
        <mxCell id="86CAOPFkjnfypf_7lXeF-110" style="edgeStyle=orthogonalEdgeStyle;rounded=0;orthogonalLoop=1;jettySize=auto;html=1;entryX=0.154;entryY=1.034;entryDx=0;entryDy=0;strokeColor=#6666FF;strokeWidth=5;fillColor=#CC0000;gradientColor=none;flowAnimation=0;entryPerimeter=0;" parent="WIyWlLk6GJQsqaUBKTNV-1" target="86CAOPFkjnfypf_7lXeF-8" edge="1">
          <mxGeometry relative="1" as="geometry">
            <mxPoint x="4433" y="-180" as="sourcePoint" />
            <mxPoint x="4211.379310344828" y="-248.2795698924731" as="targetPoint" />
            <Array as="points">
              <mxPoint x="4433" y="-140" />
            </Array>
          </mxGeometry>
        </mxCell>
        <mxCell id="86CAOPFkjnfypf_7lXeF-111" style="edgeStyle=orthogonalEdgeStyle;rounded=0;orthogonalLoop=1;jettySize=auto;html=1;entryX=0.5;entryY=1;entryDx=0;entryDy=0;strokeColor=#CC0000;strokeWidth=5;fillColor=#CC0000;gradientColor=none;flowAnimation=0;exitX=0.5;exitY=0;exitDx=0;exitDy=0;entryPerimeter=0;" parent="WIyWlLk6GJQsqaUBKTNV-1" source="86CAOPFkjnfypf_7lXeF-22" target="86CAOPFkjnfypf_7lXeF-4" edge="1">
          <mxGeometry relative="1" as="geometry">
            <mxPoint x="2559.8706896551726" y="408.172043010753" as="sourcePoint" />
            <mxPoint x="2849.3103448275865" y="408.172043010753" as="targetPoint" />
          </mxGeometry>
        </mxCell>
        <mxCell id="86CAOPFkjnfypf_7lXeF-115" style="edgeStyle=orthogonalEdgeStyle;rounded=0;orthogonalLoop=1;jettySize=auto;html=1;strokeColor=#660000;strokeWidth=5;fillColor=#CC0000;gradientColor=none;flowAnimation=0;exitX=0.897;exitY=0.025;exitDx=0;exitDy=0;entryX=0.926;entryY=1.041;entryDx=0;entryDy=0;entryPerimeter=0;exitPerimeter=0;" parent="WIyWlLk6GJQsqaUBKTNV-1" source="86CAOPFkjnfypf_7lXeF-8" target="86CAOPFkjnfypf_7lXeF-11" edge="1">
          <mxGeometry relative="1" as="geometry">
            <mxPoint x="5113.75" y="810.2559498207875" as="sourcePoint" />
            <mxPoint x="5335.086206896552" y="568.6379928315414" as="targetPoint" />
            <Array as="points">
              <mxPoint x="5050" y="599" />
              <mxPoint x="5050" y="627" />
            </Array>
          </mxGeometry>
        </mxCell>
        <mxCell id="86CAOPFkjnfypf_7lXeF-116" value="&lt;b&gt;&lt;font color=&quot;#b266ff&quot; style=&quot;font-size: 18px;&quot;&gt;MUX&lt;/font&gt;&lt;/b&gt;" style="shape=trapezoid;perimeter=trapezoidPerimeter;whiteSpace=wrap;html=1;fixedSize=1;direction=south;fillColor=#ffcccc;strokeColor=#36393d;container=0;" parent="WIyWlLk6GJQsqaUBKTNV-1" vertex="1">
          <mxGeometry x="4926.4655172413795" y="233.1182795698926" width="187.2844827586207" height="218.8172043010753" as="geometry" />
        </mxCell>
        <mxCell id="86CAOPFkjnfypf_7lXeF-118" style="edgeStyle=orthogonalEdgeStyle;rounded=0;orthogonalLoop=1;jettySize=auto;html=1;entryX=0.75;entryY=1;entryDx=0;entryDy=0;strokeColor=#cc0000;strokeWidth=5;fillColor=#CC0000;gradientColor=none;flowAnimation=0;exitX=0.5;exitY=0;exitDx=0;exitDy=0;" parent="WIyWlLk6GJQsqaUBKTNV-1" source="86CAOPFkjnfypf_7lXeF-116" target="86CAOPFkjnfypf_7lXeF-10" edge="1">
          <mxGeometry relative="1" as="geometry">
            <mxPoint x="4943.491379310345" y="174.7670250896058" as="sourcePoint" />
            <mxPoint x="5284.008620689656" y="174.7670250896058" as="targetPoint" />
          </mxGeometry>
        </mxCell>
        <mxCell id="86CAOPFkjnfypf_7lXeF-122" style="edgeStyle=orthogonalEdgeStyle;rounded=0;orthogonalLoop=1;jettySize=auto;html=1;entryX=1;entryY=0.5;entryDx=0;entryDy=0;strokeColor=#6666FF;strokeWidth=5;fillColor=#CC0000;gradientColor=none;flowAnimation=0;exitX=0.284;exitY=0.101;exitDx=0;exitDy=0;exitPerimeter=0;" parent="WIyWlLk6GJQsqaUBKTNV-1" source="86CAOPFkjnfypf_7lXeF-187" target="86CAOPFkjnfypf_7lXeF-116" edge="1">
          <mxGeometry relative="1" as="geometry">
            <mxPoint x="5743.706896551725" y="670.7526881720432" as="sourcePoint" />
            <mxPoint x="4621.702586206897" y="1006.2724014336918" as="targetPoint" />
            <Array as="points">
              <mxPoint x="5025.2155172413795" y="1028.1541218637994" />
              <mxPoint x="5249.956896551725" y="1028.1541218637994" />
              <mxPoint x="5249.956896551725" y="510.2867383512548" />
              <mxPoint x="5020.10775862069" y="510.2867383512548" />
            </Array>
          </mxGeometry>
        </mxCell>
        <mxCell id="86CAOPFkjnfypf_7lXeF-124" style="edgeStyle=orthogonalEdgeStyle;rounded=0;orthogonalLoop=1;jettySize=auto;html=1;entryX=0.603;entryY=0.984;entryDx=0;entryDy=0;strokeColor=#6666FF;strokeWidth=5;fillColor=#CC0000;gradientColor=none;flowAnimation=0;exitX=0.062;exitY=0.005;exitDx=0;exitDy=0;exitPerimeter=0;entryPerimeter=0;" parent="WIyWlLk6GJQsqaUBKTNV-1" source="86CAOPFkjnfypf_7lXeF-8" target="86CAOPFkjnfypf_7lXeF-175" edge="1">
          <mxGeometry relative="1" as="geometry">
            <mxPoint x="4875.387931034483" y="-102.40143369175621" as="sourcePoint" />
            <mxPoint x="5164.827586206897" y="-102.40143369175621" as="targetPoint" />
            <Array as="points">
              <mxPoint x="5232.931034482759" y="-230.77419354838707" />
              <mxPoint x="5232.931034482759" y="-633.3978494623655" />
            </Array>
          </mxGeometry>
        </mxCell>
        <mxCell id="86CAOPFkjnfypf_7lXeF-128" style="edgeStyle=orthogonalEdgeStyle;rounded=0;orthogonalLoop=1;jettySize=auto;html=1;entryX=0.5;entryY=1;entryDx=0;entryDy=0;strokeColor=#6666FF;strokeWidth=5;fillColor=#CC0000;gradientColor=none;flowAnimation=0;exitX=0.026;exitY=0.031;exitDx=0;exitDy=0;exitPerimeter=0;" parent="WIyWlLk6GJQsqaUBKTNV-1" source="86CAOPFkjnfypf_7lXeF-8" target="86CAOPFkjnfypf_7lXeF-176" edge="1">
          <mxGeometry relative="1" as="geometry">
            <mxPoint x="4892.413793103448" y="-87.81362007168445" as="sourcePoint" />
            <mxPoint x="5181.853448275862" y="-87.81362007168445" as="targetPoint" />
          </mxGeometry>
        </mxCell>
        <mxCell id="86CAOPFkjnfypf_7lXeF-129" value="&lt;font color=&quot;#0000ff&quot; style=&quot;font-size: 20px;&quot;&gt;&lt;b&gt;Shift Left&lt;/b&gt;&lt;/font&gt;" style="ellipse;whiteSpace=wrap;html=1;fillColor=#ffff88;strokeColor=#36393d;direction=south;container=0;" parent="WIyWlLk6GJQsqaUBKTNV-1" vertex="1">
          <mxGeometry x="3428.189655172414" y="1721.0752688172047" width="136.20689655172416" height="247.99283154121866" as="geometry" />
        </mxCell>
        <mxCell id="86CAOPFkjnfypf_7lXeF-133" value="Adder" style="shape=step;perimeter=stepPerimeter;whiteSpace=wrap;html=1;fixedSize=1;fillColor=#ffff88;strokeColor=#36393d;fontSize=20;fontColor=#B266FF;container=0;" parent="WIyWlLk6GJQsqaUBKTNV-1" vertex="1">
          <mxGeometry x="3955.9913793103456" y="1684.6057347670253" width="204.31034482758622" height="116.70250896057348" as="geometry" />
        </mxCell>
        <mxCell id="86CAOPFkjnfypf_7lXeF-143" style="edgeStyle=orthogonalEdgeStyle;rounded=0;orthogonalLoop=1;jettySize=auto;html=1;strokeColor=#cc0000;strokeWidth=5;fillColor=#CC0000;gradientColor=none;flowAnimation=0;exitX=0.649;exitY=0.011;exitDx=0;exitDy=0;exitPerimeter=0;" parent="WIyWlLk6GJQsqaUBKTNV-1" source="86CAOPFkjnfypf_7lXeF-11" target="Hs6rmwznbdLAOPUni4K7-1" edge="1">
          <mxGeometry relative="1" as="geometry">
            <mxPoint x="6135.301724137931" y="510.4472043010751" as="sourcePoint" />
            <mxPoint x="6368.556034482759" y="510.4472043010751" as="targetPoint" />
            <Array as="points">
              <mxPoint x="6100" y="349" />
              <mxPoint x="6250" y="349" />
              <mxPoint x="6250" y="220" />
            </Array>
          </mxGeometry>
        </mxCell>
        <mxCell id="86CAOPFkjnfypf_7lXeF-144" style="edgeStyle=orthogonalEdgeStyle;rounded=0;orthogonalLoop=1;jettySize=auto;html=1;entryX=0;entryY=0.5;entryDx=0;entryDy=0;strokeColor=#6666FF;strokeWidth=5;fillColor=#CC0000;gradientColor=none;flowAnimation=0;exitX=0.1;exitY=-0.066;exitDx=0;exitDy=0;exitPerimeter=0;" parent="WIyWlLk6GJQsqaUBKTNV-1" source="86CAOPFkjnfypf_7lXeF-11" target="86CAOPFkjnfypf_7lXeF-13" edge="1">
          <mxGeometry relative="1" as="geometry">
            <mxPoint x="6186.379310344828" y="979.5329390681009" as="sourcePoint" />
            <mxPoint x="6475.818965517242" y="979.5329390681009" as="targetPoint" />
          </mxGeometry>
        </mxCell>
        <mxCell id="86CAOPFkjnfypf_7lXeF-146" style="edgeStyle=orthogonalEdgeStyle;rounded=0;orthogonalLoop=1;jettySize=auto;html=1;strokeColor=#6666FF;strokeWidth=5;fillColor=#CC0000;gradientColor=none;flowAnimation=0;entryX=0;entryY=0.75;entryDx=0;entryDy=0;entryPerimeter=0;" parent="WIyWlLk6GJQsqaUBKTNV-1" target="86CAOPFkjnfypf_7lXeF-147" edge="1">
          <mxGeometry relative="1" as="geometry">
            <mxPoint x="6560.94827586207" y="-189.9283154121863" as="sourcePoint" />
            <mxPoint x="6714.181034482759" y="-364.98207885304646" as="targetPoint" />
            <Array as="points">
              <mxPoint x="6560.94827586207" y="-440.8387096774193" />
            </Array>
          </mxGeometry>
        </mxCell>
        <mxCell id="86CAOPFkjnfypf_7lXeF-147" value="Branch" style="shape=or;whiteSpace=wrap;html=1;fillColor=#ffff88;strokeColor=#36393d;fontSize=20;fontStyle=1;fontColor=#0000FF;container=0;" parent="WIyWlLk6GJQsqaUBKTNV-1" vertex="1">
          <mxGeometry x="6731.206896551725" y="-540.0358422939066" width="170.25862068965517" height="131.29032258064518" as="geometry" />
        </mxCell>
        <mxCell id="86CAOPFkjnfypf_7lXeF-148" style="edgeStyle=orthogonalEdgeStyle;rounded=0;orthogonalLoop=1;jettySize=auto;html=1;strokeColor=#6666FF;strokeWidth=5;fillColor=#CC0000;gradientColor=none;flowAnimation=0;exitX=0.412;exitY=-0.01;exitDx=0;exitDy=0;exitPerimeter=0;entryX=0;entryY=0.25;entryDx=0;entryDy=0;entryPerimeter=0;" parent="WIyWlLk6GJQsqaUBKTNV-1" source="86CAOPFkjnfypf_7lXeF-11" target="86CAOPFkjnfypf_7lXeF-147" edge="1">
          <mxGeometry relative="1" as="geometry">
            <mxPoint x="6118.275862068966" y="-306.63082437275966" as="sourcePoint" />
            <mxPoint x="6509.870689655173" y="-321.2186379928314" as="targetPoint" />
            <Array as="points">
              <mxPoint x="6220.431034482759" y="116.41577060931922" />
              <mxPoint x="6220.431034482759" y="-506.48387096774195" />
            </Array>
          </mxGeometry>
        </mxCell>
        <mxCell id="86CAOPFkjnfypf_7lXeF-149" value="&lt;b&gt;&lt;font color=&quot;#b266ff&quot; style=&quot;font-size: 18px;&quot;&gt;MUX&lt;/font&gt;&lt;/b&gt;" style="shape=trapezoid;perimeter=trapezoidPerimeter;whiteSpace=wrap;html=1;fixedSize=1;direction=south;fillColor=#ffcccc;strokeColor=#36393d;container=0;" parent="WIyWlLk6GJQsqaUBKTNV-1" vertex="1">
          <mxGeometry x="8161.379310344828" y="233.1182795698926" width="187.2844827586207" height="218.8172043010753" as="geometry" />
        </mxCell>
        <mxCell id="86CAOPFkjnfypf_7lXeF-150" style="edgeStyle=orthogonalEdgeStyle;rounded=0;orthogonalLoop=1;jettySize=auto;html=1;entryX=0.602;entryY=0.977;entryDx=0;entryDy=0;strokeColor=#CC0000;strokeWidth=5;fillColor=#CC0000;gradientColor=none;flowAnimation=0;exitX=0.45;exitY=0.006;exitDx=0;exitDy=0;exitPerimeter=0;entryPerimeter=0;" parent="WIyWlLk6GJQsqaUBKTNV-1" source="86CAOPFkjnfypf_7lXeF-12" target="86CAOPFkjnfypf_7lXeF-149" edge="1">
          <mxGeometry relative="1" as="geometry">
            <mxPoint x="7701.681034482759" y="340.44082437275983" as="sourcePoint" />
            <mxPoint x="7991.120689655173" y="340.44082437275983" as="targetPoint" />
            <Array as="points">
              <mxPoint x="7923" y="141" />
              <mxPoint x="7923" y="365" />
            </Array>
          </mxGeometry>
        </mxCell>
        <mxCell id="86CAOPFkjnfypf_7lXeF-152" value="&lt;b style=&quot;font-size: 35px;&quot;&gt;&lt;font style=&quot;font-size: 35px;&quot;&gt;Hazard Detection Unit&lt;/font&gt;&lt;/b&gt;" style="rounded=0;whiteSpace=wrap;html=1;direction=south;fillColor=#f5f5f5;strokeColor=#666666;fontColor=#B266FF;shadow=0;glass=0;container=0;fontSize=35;" parent="WIyWlLk6GJQsqaUBKTNV-1" vertex="1">
          <mxGeometry x="3189.8275862068967" y="-1750.8243727598567" width="715.0862068965517" height="233.40501792114696" as="geometry" />
        </mxCell>
        <mxCell id="86CAOPFkjnfypf_7lXeF-153" style="edgeStyle=orthogonalEdgeStyle;rounded=0;orthogonalLoop=1;jettySize=auto;html=1;entryX=0;entryY=0.5;entryDx=0;entryDy=0;strokeColor=#6666FF;strokeWidth=5;fillColor=#CC0000;gradientColor=none;flowAnimation=0;exitX=0.75;exitY=1;exitDx=0;exitDy=0;entryPerimeter=0;" parent="WIyWlLk6GJQsqaUBKTNV-1" source="86CAOPFkjnfypf_7lXeF-152" target="86CAOPFkjnfypf_7lXeF-4" edge="1">
          <mxGeometry relative="1" as="geometry">
            <mxPoint x="2083.1465517241377" y="-758.853046594982" as="sourcePoint" />
            <mxPoint x="2372.5862068965516" y="-758.853046594982" as="targetPoint" />
          </mxGeometry>
        </mxCell>
        <mxCell id="86CAOPFkjnfypf_7lXeF-154" style="edgeStyle=orthogonalEdgeStyle;rounded=0;orthogonalLoop=1;jettySize=auto;html=1;entryX=0;entryY=0.5;entryDx=0;entryDy=0;strokeColor=#6666FF;strokeWidth=5;fillColor=#CC0000;gradientColor=none;flowAnimation=0;exitX=0.5;exitY=1;exitDx=0;exitDy=0;" parent="WIyWlLk6GJQsqaUBKTNV-1" source="86CAOPFkjnfypf_7lXeF-152" target="86CAOPFkjnfypf_7lXeF-0" edge="1">
          <mxGeometry relative="1" as="geometry">
            <mxPoint x="2117.198275862069" y="-1108.9605734767024" as="sourcePoint" />
            <mxPoint x="2406.637931034483" y="-1108.9605734767024" as="targetPoint" />
          </mxGeometry>
        </mxCell>
        <mxCell id="86CAOPFkjnfypf_7lXeF-155" style="edgeStyle=orthogonalEdgeStyle;rounded=0;orthogonalLoop=1;jettySize=auto;html=1;strokeColor=#CC0000;strokeWidth=5;fillColor=#CC0000;gradientColor=none;flowAnimation=0;" parent="WIyWlLk6GJQsqaUBKTNV-1" target="86CAOPFkjnfypf_7lXeF-152" edge="1">
          <mxGeometry relative="1" as="geometry">
            <mxPoint x="3160" y="-680" as="sourcePoint" />
            <mxPoint x="2951.4655172413795" y="1473.0824372759857" as="targetPoint" />
            <Array as="points">
              <mxPoint x="2713.1034482758623" y="-1415.304659498208" />
              <mxPoint x="3394.137931034483" y="-1415.304659498208" />
            </Array>
          </mxGeometry>
        </mxCell>
        <mxCell id="86CAOPFkjnfypf_7lXeF-156" style="edgeStyle=orthogonalEdgeStyle;rounded=0;orthogonalLoop=1;jettySize=auto;html=1;strokeColor=#660000;strokeWidth=5;fillColor=#CC0000;gradientColor=none;flowAnimation=0;" parent="WIyWlLk6GJQsqaUBKTNV-1" target="86CAOPFkjnfypf_7lXeF-152" edge="1">
          <mxGeometry relative="1" as="geometry">
            <mxPoint x="4690" y="600" as="sourcePoint" />
            <mxPoint x="3547.3706896551726" y="-1167.3118279569892" as="targetPoint" />
            <Array as="points">
              <mxPoint x="4602.974137931034" y="743.6917562724016" />
              <mxPoint x="4602.974137931034" y="1473.0824372759857" />
              <mxPoint x="2662.0258620689656" y="1473.0824372759857" />
              <mxPoint x="2662.0258620689656" y="-1269.426523297491" />
              <mxPoint x="3547.3706896551726" y="-1269.426523297491" />
            </Array>
          </mxGeometry>
        </mxCell>
        <mxCell id="86CAOPFkjnfypf_7lXeF-157" value="OR" style="shape=dataStorage;whiteSpace=wrap;html=1;fixedSize=1;direction=north;fillColor=#ffff88;strokeColor=#36393d;fontStyle=1;fontSize=20;fontColor=#0000FF;container=0;" parent="WIyWlLk6GJQsqaUBKTNV-1" vertex="1">
          <mxGeometry x="4211.379310344828" y="-1663.2974910394264" width="136.20689655172416" height="145.87813620071685" as="geometry" />
        </mxCell>
        <mxCell id="86CAOPFkjnfypf_7lXeF-158" style="edgeStyle=orthogonalEdgeStyle;rounded=0;orthogonalLoop=1;jettySize=auto;html=1;entryX=0.78;entryY=0.742;entryDx=0;entryDy=0;strokeColor=#6666FF;strokeWidth=5;fillColor=#CC0000;gradientColor=none;flowAnimation=0;exitX=0.5;exitY=0;exitDx=0;exitDy=0;entryPerimeter=0;" parent="WIyWlLk6GJQsqaUBKTNV-1" source="86CAOPFkjnfypf_7lXeF-58" target="86CAOPFkjnfypf_7lXeF-157" edge="1">
          <mxGeometry relative="1" as="geometry">
            <mxPoint x="3428.189655172414" y="-2071.7562724014338" as="sourcePoint" />
            <mxPoint x="3717.629310344828" y="-2071.7562724014338" as="targetPoint" />
            <Array as="points">
              <mxPoint x="4415.689655172414" y="-685.9139784946235" />
              <mxPoint x="4415.689655172414" y="-1780" />
              <mxPoint x="4311.831896551725" y="-1780" />
            </Array>
          </mxGeometry>
        </mxCell>
        <mxCell id="86CAOPFkjnfypf_7lXeF-159" style="edgeStyle=orthogonalEdgeStyle;rounded=0;orthogonalLoop=1;jettySize=auto;html=1;entryX=0.896;entryY=0.242;entryDx=0;entryDy=0;strokeColor=#6666FF;strokeWidth=5;fillColor=#CC0000;gradientColor=none;flowAnimation=0;exitX=0.25;exitY=0;exitDx=0;exitDy=0;entryPerimeter=0;" parent="WIyWlLk6GJQsqaUBKTNV-1" source="86CAOPFkjnfypf_7lXeF-152" target="86CAOPFkjnfypf_7lXeF-157" edge="1">
          <mxGeometry relative="1" as="geometry">
            <mxPoint x="4432.7155172413795" y="-2100.9318996415773" as="sourcePoint" />
            <mxPoint x="4722.1551724137935" y="-2100.9318996415773" as="targetPoint" />
            <Array as="points">
              <mxPoint x="4058.146551724138" y="-1692.47311827957" />
              <mxPoint x="4058.146551724138" y="-1780" />
              <mxPoint x="4243.728448275862" y="-1780" />
            </Array>
          </mxGeometry>
        </mxCell>
        <mxCell id="86CAOPFkjnfypf_7lXeF-160" value="&lt;b&gt;&lt;font color=&quot;#b266ff&quot; style=&quot;font-size: 18px;&quot;&gt;MUX&lt;/font&gt;&lt;/b&gt;" style="shape=trapezoid;perimeter=trapezoidPerimeter;whiteSpace=wrap;html=1;fixedSize=1;direction=south;fillColor=#ffcccc;strokeColor=#36393d;container=0;" parent="WIyWlLk6GJQsqaUBKTNV-1" vertex="1">
          <mxGeometry x="4160.301724137931" y="-481.68458781362006" width="85.12931034482759" height="160.46594982078855" as="geometry" />
        </mxCell>
        <mxCell id="86CAOPFkjnfypf_7lXeF-163" style="edgeStyle=orthogonalEdgeStyle;rounded=0;orthogonalLoop=1;jettySize=auto;html=1;entryX=0;entryY=0.25;entryDx=0;entryDy=0;strokeColor=#6666FF;strokeWidth=5;fillColor=#CC0000;gradientColor=none;flowAnimation=0;fontColor=#6666FF;" parent="WIyWlLk6GJQsqaUBKTNV-1" target="86CAOPFkjnfypf_7lXeF-175" edge="1">
          <mxGeometry relative="1" as="geometry">
            <mxPoint x="5096.724137931034" y="-860.9677419354838" as="sourcePoint" />
            <mxPoint x="5556.422413793104" y="-860.9677419354838" as="targetPoint" />
          </mxGeometry>
        </mxCell>
        <mxCell id="86CAOPFkjnfypf_7lXeF-164" style="edgeStyle=orthogonalEdgeStyle;rounded=0;orthogonalLoop=1;jettySize=auto;html=1;entryX=0.5;entryY=1;entryDx=0;entryDy=0;strokeColor=#6666FF;strokeWidth=5;fillColor=#CC0000;gradientColor=none;flowAnimation=0;exitX=0.75;exitY=0;exitDx=0;exitDy=0;fontColor=#6666FF;" parent="WIyWlLk6GJQsqaUBKTNV-1" source="86CAOPFkjnfypf_7lXeF-58" target="86CAOPFkjnfypf_7lXeF-160" edge="1">
          <mxGeometry relative="1" as="geometry">
            <mxPoint x="3291.9827586206898" y="-403.2750896057346" as="sourcePoint" />
            <mxPoint x="3581.4224137931037" y="-403.2750896057346" as="targetPoint" />
            <Array as="points">
              <mxPoint x="4160.301724137931" y="-627.5627240143369" />
              <mxPoint x="4160.301724137931" y="-525.4480286738351" />
              <mxPoint x="4024.094827586207" y="-525.4480286738351" />
              <mxPoint x="4024.094827586207" y="-401.4516129032256" />
            </Array>
          </mxGeometry>
        </mxCell>
        <mxCell id="86CAOPFkjnfypf_7lXeF-165" style="edgeStyle=orthogonalEdgeStyle;rounded=0;orthogonalLoop=1;jettySize=auto;html=1;entryX=0;entryY=0.25;entryDx=0;entryDy=0;strokeColor=#6666FF;strokeWidth=5;fillColor=#CC0000;gradientColor=none;flowAnimation=0;exitX=0;exitY=0.5;exitDx=0;exitDy=0;fontColor=#6666FF;" parent="WIyWlLk6GJQsqaUBKTNV-1" source="86CAOPFkjnfypf_7lXeF-157" target="86CAOPFkjnfypf_7lXeF-160" edge="1">
          <mxGeometry relative="1" as="geometry">
            <mxPoint x="3343.0603448275865" y="-233.69175627240134" as="sourcePoint" />
            <mxPoint x="3632.5" y="-233.69175627240134" as="targetPoint" />
            <Array as="points">
              <mxPoint x="4280" y="-530" />
              <mxPoint x="4220" y="-530" />
            </Array>
          </mxGeometry>
        </mxCell>
        <mxCell id="86CAOPFkjnfypf_7lXeF-166" style="edgeStyle=orthogonalEdgeStyle;rounded=0;orthogonalLoop=1;jettySize=auto;html=1;entryX=0.75;entryY=1;entryDx=0;entryDy=0;strokeColor=#6666FF;strokeWidth=5;fillColor=#CC0000;gradientColor=none;flowAnimation=0;fontColor=#6666FF;" parent="WIyWlLk6GJQsqaUBKTNV-1" target="86CAOPFkjnfypf_7lXeF-160" edge="1">
          <mxGeometry relative="1" as="geometry">
            <mxPoint x="3966.206896551724" y="-360.60573476702507" as="sourcePoint" />
            <mxPoint x="4058.146551724138" y="-350.3942652329747" as="targetPoint" />
            <Array as="points">
              <mxPoint x="3966.206896551724" y="-348.9354838709676" />
              <mxPoint x="3966.206896551724" y="-362.0645161290322" />
            </Array>
          </mxGeometry>
        </mxCell>
        <mxCell id="86CAOPFkjnfypf_7lXeF-168" style="edgeStyle=orthogonalEdgeStyle;rounded=0;orthogonalLoop=1;jettySize=auto;html=1;entryX=0.954;entryY=1.021;entryDx=0;entryDy=0;strokeColor=#6666FF;strokeWidth=5;fillColor=#CC0000;gradientColor=none;flowAnimation=0;exitX=0.25;exitY=0;exitDx=0;exitDy=0;fontColor=#6666FF;entryPerimeter=0;" parent="WIyWlLk6GJQsqaUBKTNV-1" source="86CAOPFkjnfypf_7lXeF-58" target="86CAOPFkjnfypf_7lXeF-4" edge="1">
          <mxGeometry relative="1" as="geometry">
            <mxPoint x="3411.1637931034484" y="-233.69175627240134" as="sourcePoint" />
            <mxPoint x="3700.6034482758623" y="-233.69175627240134" as="targetPoint" />
            <Array as="points">
              <mxPoint x="4160.301724137931" y="-744.2652329749103" />
              <mxPoint x="4160.301724137931" y="-1079.784946236559" />
              <mxPoint x="670" y="-1079.784946236559" />
              <mxPoint x="670" y="654.7060931899641" />
            </Array>
          </mxGeometry>
        </mxCell>
        <mxCell id="86CAOPFkjnfypf_7lXeF-169" style="edgeStyle=orthogonalEdgeStyle;rounded=0;orthogonalLoop=1;jettySize=auto;html=1;entryX=0;entryY=0.5;entryDx=0;entryDy=0;strokeColor=#6666FF;strokeWidth=5;fillColor=#CC0000;gradientColor=none;flowAnimation=0;exitX=0.611;exitY=-0.003;exitDx=0;exitDy=0;fontColor=#6666FF;exitPerimeter=0;" parent="WIyWlLk6GJQsqaUBKTNV-1" source="86CAOPFkjnfypf_7lXeF-58" target="86CAOPFkjnfypf_7lXeF-176" edge="1">
          <mxGeometry relative="1" as="geometry">
            <mxPoint x="4415.689655172414" y="-598.3870967741934" as="sourcePoint" />
            <mxPoint x="4705.129310344828" y="-598.3870967741934" as="targetPoint" />
            <Array as="points">
              <mxPoint x="4594.4612068965525" y="-659.6559139784945" />
              <mxPoint x="4594.4612068965525" y="-860.9677419354838" />
              <mxPoint x="5105.237068965517" y="-860.9677419354838" />
            </Array>
          </mxGeometry>
        </mxCell>
        <mxCell id="86CAOPFkjnfypf_7lXeF-102" value="Sign Extend" style="ellipse;whiteSpace=wrap;html=1;fillColor=#FFB366;strokeColor=#36393d;fontColor=#0000FF;container=0;fontSize=23;" parent="WIyWlLk6GJQsqaUBKTNV-1" vertex="1">
          <mxGeometry x="3240.9051724137935" y="1210.5017921146955" width="204.31034482758622" height="116.70250896057348" as="geometry" />
        </mxCell>
        <mxCell id="86CAOPFkjnfypf_7lXeF-171" style="edgeStyle=orthogonalEdgeStyle;rounded=0;orthogonalLoop=1;jettySize=auto;html=1;strokeColor=#CC0000;strokeWidth=5;fillColor=#CC0000;gradientColor=none;flowAnimation=0;" parent="WIyWlLk6GJQsqaUBKTNV-1" target="86CAOPFkjnfypf_7lXeF-133" edge="1">
          <mxGeometry relative="1" as="geometry">
            <mxPoint x="4041.1206896551726" y="-102.40143369175621" as="sourcePoint" />
            <mxPoint x="3087.6724137931037" y="1983.655913978495" as="targetPoint" />
            <Array as="points">
              <mxPoint x="4041" y="792" />
              <mxPoint x="3854" y="792" />
              <mxPoint x="3854" y="1760" />
            </Array>
          </mxGeometry>
        </mxCell>
        <mxCell id="86CAOPFkjnfypf_7lXeF-172" style="edgeStyle=orthogonalEdgeStyle;rounded=0;orthogonalLoop=1;jettySize=auto;html=1;strokeColor=#CC0000;strokeWidth=5;fillColor=#CC0000;gradientColor=none;flowAnimation=0;" parent="WIyWlLk6GJQsqaUBKTNV-1" target="86CAOPFkjnfypf_7lXeF-4" edge="1">
          <mxGeometry relative="1" as="geometry">
            <mxPoint x="721" y="200" as="sourcePoint" />
            <mxPoint x="2934.439655172414" y="524.8745519713261" as="targetPoint" />
            <Array as="points">
              <mxPoint x="721.0775862068965" y="524.8745519713261" />
            </Array>
          </mxGeometry>
        </mxCell>
        <mxCell id="86CAOPFkjnfypf_7lXeF-173" style="edgeStyle=orthogonalEdgeStyle;rounded=0;orthogonalLoop=1;jettySize=auto;html=1;entryX=0;entryY=0.25;entryDx=0;entryDy=0;strokeColor=#CC0000;strokeWidth=5;fillColor=#CC0000;gradientColor=none;flowAnimation=0;exitX=0.5;exitY=0;exitDx=0;exitDy=0;" parent="WIyWlLk6GJQsqaUBKTNV-1" source="86CAOPFkjnfypf_7lXeF-129" target="86CAOPFkjnfypf_7lXeF-133" edge="1">
          <mxGeometry relative="1" as="geometry">
            <mxPoint x="3360.086206896552" y="2114.9462365591403" as="sourcePoint" />
            <mxPoint x="3649.5258620689656" y="2114.9462365591403" as="targetPoint" />
          </mxGeometry>
        </mxCell>
        <mxCell id="86CAOPFkjnfypf_7lXeF-174" style="edgeStyle=orthogonalEdgeStyle;rounded=0;orthogonalLoop=1;jettySize=auto;html=1;entryX=0;entryY=0.5;entryDx=0;entryDy=0;strokeColor=#CC0000;strokeWidth=5;fillColor=#CC0000;gradientColor=none;flowAnimation=0;exitX=1;exitY=0.5;exitDx=0;exitDy=0;" parent="WIyWlLk6GJQsqaUBKTNV-1" source="86CAOPFkjnfypf_7lXeF-133" target="86CAOPFkjnfypf_7lXeF-296" edge="1">
          <mxGeometry relative="1" as="geometry">
            <mxPoint x="3683.5775862068967" y="2231.6487455197134" as="sourcePoint" />
            <mxPoint x="3973.0172413793107" y="2231.6487455197134" as="targetPoint" />
            <Array as="points">
              <mxPoint x="4331" y="1743" />
              <mxPoint x="4331" y="1575" />
              <mxPoint x="823" y="1575" />
              <mxPoint x="823" y="255" />
            </Array>
          </mxGeometry>
        </mxCell>
        <mxCell id="86CAOPFkjnfypf_7lXeF-175" value="&lt;b&gt;&lt;font color=&quot;#b266ff&quot; style=&quot;font-size: 18px;&quot;&gt;MUX&lt;/font&gt;&lt;/b&gt;" style="shape=trapezoid;perimeter=trapezoidPerimeter;whiteSpace=wrap;html=1;fixedSize=1;direction=south;fillColor=#ffcccc;strokeColor=#36393d;container=0;" parent="WIyWlLk6GJQsqaUBKTNV-1" vertex="1">
          <mxGeometry x="5556.422413793104" y="-729.6774193548385" width="85.12931034482759" height="160.46594982078855" as="geometry" />
        </mxCell>
        <mxCell id="86CAOPFkjnfypf_7lXeF-176" value="&lt;b&gt;&lt;font color=&quot;#b266ff&quot; style=&quot;font-size: 18px;&quot;&gt;MUX&lt;/font&gt;&lt;/b&gt;" style="shape=trapezoid;perimeter=trapezoidPerimeter;whiteSpace=wrap;html=1;fixedSize=1;direction=south;fillColor=#ffcccc;strokeColor=#36393d;container=0;" parent="WIyWlLk6GJQsqaUBKTNV-1" vertex="1">
          <mxGeometry x="5062.672413793103" y="-729.6774193548385" width="85.12931034482759" height="160.46594982078855" as="geometry" />
        </mxCell>
        <mxCell id="86CAOPFkjnfypf_7lXeF-177" value="&lt;b&gt;&lt;font color=&quot;#b266ff&quot; style=&quot;font-size: 18px;&quot;&gt;MUX&lt;/font&gt;&lt;/b&gt;" style="shape=trapezoid;perimeter=trapezoidPerimeter;whiteSpace=wrap;html=1;fixedSize=1;direction=south;fillColor=#ffcccc;strokeColor=#36393d;container=0;" parent="WIyWlLk6GJQsqaUBKTNV-1" vertex="1">
          <mxGeometry x="5028.620689655173" y="-102.40143369175621" width="85.12931034482759" height="160.46594982078855" as="geometry" />
        </mxCell>
        <mxCell id="86CAOPFkjnfypf_7lXeF-181" style="edgeStyle=orthogonalEdgeStyle;rounded=0;orthogonalLoop=1;jettySize=auto;html=1;entryX=0.25;entryY=1;entryDx=0;entryDy=0;strokeColor=#6666FF;strokeWidth=5;fillColor=#CC0000;gradientColor=none;flowAnimation=0;fontColor=#6666FF;" parent="WIyWlLk6GJQsqaUBKTNV-1" target="86CAOPFkjnfypf_7lXeF-175" edge="1">
          <mxGeometry relative="1" as="geometry">
            <mxPoint x="5215.9051724137935" y="-686.2494982078852" as="sourcePoint" />
            <mxPoint x="5539.396551724139" y="-686.9788888888888" as="targetPoint" />
            <Array as="points">
              <mxPoint x="5215.9051724137935" y="-688.831541218638" />
            </Array>
          </mxGeometry>
        </mxCell>
        <mxCell id="86CAOPFkjnfypf_7lXeF-182" style="edgeStyle=orthogonalEdgeStyle;rounded=0;orthogonalLoop=1;jettySize=auto;html=1;entryX=1;entryY=0.5;entryDx=0;entryDy=0;strokeColor=#6666FF;strokeWidth=5;fillColor=#CC0000;gradientColor=none;flowAnimation=0;fontColor=#6666FF;" parent="WIyWlLk6GJQsqaUBKTNV-1" target="86CAOPFkjnfypf_7lXeF-187" edge="1">
          <mxGeometry relative="1" as="geometry">
            <mxPoint x="7293.060344827587" y="-248.2795698924731" as="sourcePoint" />
            <mxPoint x="7378.189655172414" y="977.0967741935488" as="targetPoint" />
            <Array as="points">
              <mxPoint x="7259.008620689656" y="-248.2795698924731" />
              <mxPoint x="7259.008620689656" y="1662.7240143369177" />
            </Array>
          </mxGeometry>
        </mxCell>
        <mxCell id="86CAOPFkjnfypf_7lXeF-183" style="edgeStyle=orthogonalEdgeStyle;rounded=0;orthogonalLoop=1;jettySize=auto;html=1;strokeColor=#6666FF;strokeWidth=5;fillColor=#CC0000;gradientColor=none;flowAnimation=0;fontColor=#6666FF;entryX=0.25;entryY=1;entryDx=0;entryDy=0;" parent="WIyWlLk6GJQsqaUBKTNV-1" target="86CAOPFkjnfypf_7lXeF-176" edge="1">
          <mxGeometry relative="1" as="geometry">
            <mxPoint x="4841.336206896552" y="-686.2494982078852" as="sourcePoint" />
            <mxPoint x="5062.672413793103" y="-686.9788888888888" as="targetPoint" />
            <Array as="points">
              <mxPoint x="4841.336206896552" y="-688.831541218638" />
            </Array>
          </mxGeometry>
        </mxCell>
        <mxCell id="86CAOPFkjnfypf_7lXeF-184" style="edgeStyle=orthogonalEdgeStyle;rounded=0;orthogonalLoop=1;jettySize=auto;html=1;entryX=0.137;entryY=1.003;entryDx=0;entryDy=0;strokeColor=#6666FF;strokeWidth=5;fillColor=#CC0000;gradientColor=none;flowAnimation=0;exitX=0.5;exitY=0;exitDx=0;exitDy=0;fontColor=#6666FF;entryPerimeter=0;" parent="WIyWlLk6GJQsqaUBKTNV-1" source="86CAOPFkjnfypf_7lXeF-175" target="86CAOPFkjnfypf_7lXeF-11" edge="1">
          <mxGeometry relative="1" as="geometry">
            <mxPoint x="5284.008620689656" y="-379.5698924731182" as="sourcePoint" />
            <mxPoint x="5573.448275862069" y="-379.5698924731182" as="targetPoint" />
            <Array as="points">
              <mxPoint x="5777.758620689656" y="-649.4444444444443" />
              <mxPoint x="5777.758620689656" y="-156.3763440860214" />
            </Array>
          </mxGeometry>
        </mxCell>
        <mxCell id="86CAOPFkjnfypf_7lXeF-185" style="edgeStyle=orthogonalEdgeStyle;rounded=0;orthogonalLoop=1;jettySize=auto;html=1;entryX=0.07;entryY=1.054;entryDx=0;entryDy=0;strokeColor=#6666FF;strokeWidth=5;fillColor=#CC0000;gradientColor=none;flowAnimation=0;exitX=0.5;exitY=0;exitDx=0;exitDy=0;fontColor=#6666FF;entryPerimeter=0;" parent="WIyWlLk6GJQsqaUBKTNV-1" source="86CAOPFkjnfypf_7lXeF-176" target="86CAOPFkjnfypf_7lXeF-11" edge="1">
          <mxGeometry relative="1" as="geometry">
            <mxPoint x="5284.008620689656" y="-437.921146953405" as="sourcePoint" />
            <mxPoint x="5573.448275862069" y="-437.921146953405" as="targetPoint" />
            <Array as="points">
              <mxPoint x="5454.267241379311" y="-649.4444444444443" />
              <mxPoint x="5454.267241379311" y="-437.921146953405" />
              <mxPoint x="5845.862068965517" y="-437.921146953405" />
              <mxPoint x="5845.862068965517" y="-223.4802867383512" />
            </Array>
          </mxGeometry>
        </mxCell>
        <mxCell id="86CAOPFkjnfypf_7lXeF-187" value="&lt;font color=&quot;#0000ff&quot; style=&quot;font-size: 20px;&quot;&gt;&lt;b&gt;Forwarding Unit&lt;/b&gt;&lt;/font&gt;" style="ellipse;whiteSpace=wrap;html=1;fillColor=#ffff88;strokeColor=#36393d;container=0;" parent="WIyWlLk6GJQsqaUBKTNV-1" vertex="1">
          <mxGeometry x="4943.491379310345" y="1604.372759856631" width="289.43965517241384" height="116.70250896057348" as="geometry" />
        </mxCell>
        <mxCell id="86CAOPFkjnfypf_7lXeF-188" style="edgeStyle=orthogonalEdgeStyle;rounded=0;orthogonalLoop=1;jettySize=auto;html=1;entryX=1;entryY=1;entryDx=0;entryDy=0;strokeColor=#6666FF;strokeWidth=5;fillColor=#CC0000;gradientColor=none;flowAnimation=0;fontColor=#6666FF;" parent="WIyWlLk6GJQsqaUBKTNV-1" target="86CAOPFkjnfypf_7lXeF-187" edge="1">
          <mxGeometry relative="1" as="geometry">
            <mxPoint x="7855" y="-150" as="sourcePoint" />
            <mxPoint x="6935.517241379311" y="1020.8602150537636" as="targetPoint" />
            <Array as="points">
              <mxPoint x="7854.913793103448" y="-160.75268817204278" />
              <mxPoint x="7854.913793103448" y="1703.5698924731187" />
            </Array>
          </mxGeometry>
        </mxCell>
        <mxCell id="86CAOPFkjnfypf_7lXeF-190" style="edgeStyle=orthogonalEdgeStyle;rounded=0;orthogonalLoop=1;jettySize=auto;html=1;strokeColor=#660000;strokeWidth=5;fillColor=#CC0000;gradientColor=none;flowAnimation=0;entryX=0.5;entryY=0;entryDx=0;entryDy=0;" parent="WIyWlLk6GJQsqaUBKTNV-1" target="86CAOPFkjnfypf_7lXeF-187" edge="1">
          <mxGeometry relative="1" as="geometry">
            <mxPoint x="7803.8362068965525" y="1050.035842293907" as="sourcePoint" />
            <mxPoint x="7485.452586206897" y="831.4228673835128" as="targetPoint" />
            <Array as="points">
              <mxPoint x="7804" y="990" />
              <mxPoint x="6902" y="990" />
              <mxPoint x="6902" y="1604" />
            </Array>
          </mxGeometry>
        </mxCell>
        <mxCell id="86CAOPFkjnfypf_7lXeF-191" style="edgeStyle=orthogonalEdgeStyle;rounded=0;orthogonalLoop=1;jettySize=auto;html=1;strokeColor=#660000;strokeWidth=5;fillColor=#CC0000;gradientColor=none;flowAnimation=0;" parent="WIyWlLk6GJQsqaUBKTNV-1" target="86CAOPFkjnfypf_7lXeF-187" edge="1">
          <mxGeometry relative="1" as="geometry">
            <mxPoint x="6424.741379310345" y="641.5770609318997" as="sourcePoint" />
            <mxPoint x="5240" y="1580" as="targetPoint" />
            <Array as="points">
              <mxPoint x="6408" y="642" />
              <mxPoint x="6408" y="1620" />
            </Array>
          </mxGeometry>
        </mxCell>
        <mxCell id="86CAOPFkjnfypf_7lXeF-197" style="edgeStyle=orthogonalEdgeStyle;rounded=0;orthogonalLoop=1;jettySize=auto;html=1;entryX=0.809;entryY=0.934;entryDx=0;entryDy=0;strokeColor=#660000;strokeWidth=5;fillColor=#CC0000;gradientColor=none;flowAnimation=0;entryPerimeter=0;" parent="WIyWlLk6GJQsqaUBKTNV-1" target="86CAOPFkjnfypf_7lXeF-8" edge="1">
          <mxGeometry relative="1" as="geometry">
            <mxPoint x="3326.034482758621" y="58.06451612903243" as="sourcePoint" />
            <mxPoint x="2372.5862068965516" y="1137.5627240143372" as="targetPoint" />
            <Array as="points">
              <mxPoint x="3326.034482758621" y="641.5770609318997" />
              <mxPoint x="3932.1551724137935" y="641.5770609318997" />
              <mxPoint x="3932.1551724137935" y="511.74551971326173" />
            </Array>
          </mxGeometry>
        </mxCell>
        <mxCell id="86CAOPFkjnfypf_7lXeF-198" style="edgeStyle=orthogonalEdgeStyle;rounded=0;orthogonalLoop=1;jettySize=auto;html=1;strokeColor=#660000;strokeWidth=5;fillColor=#CC0000;gradientColor=none;flowAnimation=0;entryX=0.781;entryY=0.958;entryDx=0;entryDy=0;entryPerimeter=0;" parent="WIyWlLk6GJQsqaUBKTNV-1" target="86CAOPFkjnfypf_7lXeF-8" edge="1">
          <mxGeometry relative="1" as="geometry">
            <mxPoint x="3360.086206896552" y="-0.2867383512543711" as="sourcePoint" />
            <mxPoint x="3394.137931034483" y="-292.04301075268813" as="targetPoint" />
            <Array as="points">
              <mxPoint x="3360.086206896552" y="-204.51612903225805" />
              <mxPoint x="3955.991379310345" y="-204.51612903225805" />
              <mxPoint x="3955.991379310345" y="-58.63799283154117" />
              <mxPoint x="4415.689655172414" y="-58.63799283154117" />
              <mxPoint x="4415.689655172414" y="482.56989247311867" />
            </Array>
          </mxGeometry>
        </mxCell>
        <mxCell id="86CAOPFkjnfypf_7lXeF-200" style="edgeStyle=orthogonalEdgeStyle;rounded=0;orthogonalLoop=1;jettySize=auto;html=1;entryX=0;entryY=0.5;entryDx=0;entryDy=0;strokeColor=#660000;strokeWidth=5;fillColor=#CC0000;gradientColor=none;flowAnimation=0;exitX=0.821;exitY=-0.042;exitDx=0;exitDy=0;exitPerimeter=0;" parent="WIyWlLk6GJQsqaUBKTNV-1" source="86CAOPFkjnfypf_7lXeF-8" target="86CAOPFkjnfypf_7lXeF-187" edge="1">
          <mxGeometry relative="1" as="geometry">
            <mxPoint x="2117.198275862069" y="1064.6236559139788" as="sourcePoint" />
            <mxPoint x="2406.637931034483" y="1064.6236559139788" as="targetPoint" />
            <Array as="points">
              <mxPoint x="4739.181034482759" y="523.4157706093192" />
              <mxPoint x="4739.181034482759" y="1662.7240143369177" />
            </Array>
          </mxGeometry>
        </mxCell>
        <mxCell id="86CAOPFkjnfypf_7lXeF-201" style="edgeStyle=orthogonalEdgeStyle;rounded=0;orthogonalLoop=1;jettySize=auto;html=1;entryX=0.028;entryY=0.135;entryDx=0;entryDy=0;strokeColor=#660000;strokeWidth=5;fillColor=#CC0000;gradientColor=none;flowAnimation=0;exitX=0.784;exitY=0.053;exitDx=0;exitDy=0;exitPerimeter=0;entryPerimeter=0;" parent="WIyWlLk6GJQsqaUBKTNV-1" source="86CAOPFkjnfypf_7lXeF-8" target="86CAOPFkjnfypf_7lXeF-187" edge="1">
          <mxGeometry relative="1" as="geometry">
            <mxPoint x="2117.198275862069" y="1152.150537634409" as="sourcePoint" />
            <mxPoint x="2406.637931034483" y="1152.150537634409" as="targetPoint" />
            <Array as="points">
              <mxPoint x="4807.284482758621" y="486.94623655913983" />
              <mxPoint x="4807.284482758621" y="1620.4193548387098" />
            </Array>
          </mxGeometry>
        </mxCell>
        <mxCell id="86CAOPFkjnfypf_7lXeF-206" style="edgeStyle=orthogonalEdgeStyle;rounded=0;orthogonalLoop=1;jettySize=auto;html=1;entryX=0.222;entryY=0.989;entryDx=0;entryDy=0;strokeColor=#CC0000;strokeWidth=5;fillColor=#CC0000;gradientColor=none;flowAnimation=0;exitX=0.497;exitY=0.013;exitDx=0;exitDy=0;entryPerimeter=0;exitPerimeter=0;" parent="WIyWlLk6GJQsqaUBKTNV-1" source="86CAOPFkjnfypf_7lXeF-177" target="86CAOPFkjnfypf_7lXeF-10" edge="1">
          <mxGeometry relative="1" as="geometry">
            <mxPoint x="5999.094827586207" y="831.2186379928316" as="sourcePoint" />
            <mxPoint x="6288.534482758621" y="831.2186379928316" as="targetPoint" />
          </mxGeometry>
        </mxCell>
        <mxCell id="86CAOPFkjnfypf_7lXeF-207" style="edgeStyle=orthogonalEdgeStyle;rounded=0;orthogonalLoop=1;jettySize=auto;html=1;entryX=0.5;entryY=1;entryDx=0;entryDy=0;strokeColor=#CC0000;strokeWidth=5;fillColor=#CC0000;gradientColor=none;flowAnimation=0;" parent="WIyWlLk6GJQsqaUBKTNV-1" target="86CAOPFkjnfypf_7lXeF-177" edge="1">
          <mxGeometry relative="1" as="geometry">
            <mxPoint x="5641.551724137931" y="2114.9462365591403" as="sourcePoint" />
            <mxPoint x="6833.362068965517" y="772.8673835125451" as="targetPoint" />
            <Array as="points">
              <mxPoint x="5284.008620689656" y="2116.405017921147" />
              <mxPoint x="5284.008620689656" y="145.5913978494625" />
              <mxPoint x="4926.4655172413795" y="145.5913978494625" />
              <mxPoint x="4926.4655172413795" y="-22.168458781361778" />
            </Array>
          </mxGeometry>
        </mxCell>
        <mxCell id="86CAOPFkjnfypf_7lXeF-208" style="edgeStyle=orthogonalEdgeStyle;rounded=0;orthogonalLoop=1;jettySize=auto;html=1;entryX=0.354;entryY=1.008;entryDx=0;entryDy=0;strokeColor=#CC0000;strokeWidth=5;fillColor=#CC0000;gradientColor=none;flowAnimation=0;entryPerimeter=0;" parent="WIyWlLk6GJQsqaUBKTNV-1" target="86CAOPFkjnfypf_7lXeF-116" edge="1">
          <mxGeometry relative="1" as="geometry">
            <mxPoint x="4926.4655172413795" y="145.5913978494625" as="sourcePoint" />
            <mxPoint x="6169.353448275862" y="889.5698924731187" as="targetPoint" />
            <Array as="points">
              <mxPoint x="4926.4655172413795" y="190.81362007168468" />
              <mxPoint x="4824.310344827586" y="190.81362007168468" />
              <mxPoint x="4824.310344827586" y="310.43369175627276" />
            </Array>
          </mxGeometry>
        </mxCell>
        <mxCell id="86CAOPFkjnfypf_7lXeF-209" style="edgeStyle=orthogonalEdgeStyle;rounded=0;orthogonalLoop=1;jettySize=auto;html=1;strokeColor=#CC0000;strokeWidth=5;fillColor=#CC0000;gradientColor=none;flowAnimation=0;entryX=0.75;entryY=1;entryDx=0;entryDy=0;" parent="WIyWlLk6GJQsqaUBKTNV-1" target="86CAOPFkjnfypf_7lXeF-177" edge="1">
          <mxGeometry relative="1" as="geometry">
            <mxPoint x="6186" y="350" as="sourcePoint" />
            <mxPoint x="6186.379310344828" y="-860.9677419354838" as="targetPoint" />
            <Array as="points">
              <mxPoint x="6186" y="-504" />
              <mxPoint x="5744" y="-504" />
              <mxPoint x="5744" y="-380" />
              <mxPoint x="4875" y="-380" />
              <mxPoint x="4875" y="18" />
            </Array>
          </mxGeometry>
        </mxCell>
        <mxCell id="86CAOPFkjnfypf_7lXeF-210" style="edgeStyle=orthogonalEdgeStyle;rounded=0;orthogonalLoop=1;jettySize=auto;html=1;entryX=0.5;entryY=1;entryDx=0;entryDy=0;strokeColor=#CC0000;strokeWidth=5;fillColor=#CC0000;gradientColor=none;flowAnimation=0;" parent="WIyWlLk6GJQsqaUBKTNV-1" target="86CAOPFkjnfypf_7lXeF-116" edge="1">
          <mxGeometry relative="1" as="geometry">
            <mxPoint x="4875.387931034483" y="-146.16487455197125" as="sourcePoint" />
            <mxPoint x="6220.431034482759" y="831.2186379928316" as="targetPoint" />
            <Array as="points">
              <mxPoint x="4875.387931034483" y="-144.70609318996412" />
              <mxPoint x="4756.206896551725" y="-144.70609318996412" />
              <mxPoint x="4756.206896551725" y="342.5268817204301" />
            </Array>
          </mxGeometry>
        </mxCell>
        <mxCell id="86CAOPFkjnfypf_7lXeF-212" style="edgeStyle=orthogonalEdgeStyle;rounded=0;orthogonalLoop=1;jettySize=auto;html=1;entryX=1;entryY=0.5;entryDx=0;entryDy=0;strokeColor=#6666FF;strokeWidth=5;fillColor=#CC0000;gradientColor=none;flowAnimation=0;exitX=0.388;exitY=0.056;exitDx=0;exitDy=0;fontColor=#6666FF;exitPerimeter=0;" parent="WIyWlLk6GJQsqaUBKTNV-1" source="86CAOPFkjnfypf_7lXeF-187" target="86CAOPFkjnfypf_7lXeF-177" edge="1">
          <mxGeometry relative="1" as="geometry">
            <mxPoint x="6033.146551724139" y="977.0967741935483" as="sourcePoint" />
            <mxPoint x="6322.586206896552" y="977.0967741935483" as="targetPoint" />
            <Array as="points">
              <mxPoint x="5055.862068965517" y="1531.4336917562728" />
              <mxPoint x="5181.853448275862" y="1531.4336917562728" />
              <mxPoint x="5181.853448275862" y="101.82795698924747" />
              <mxPoint x="5071.185344827586" y="101.82795698924747" />
            </Array>
          </mxGeometry>
        </mxCell>
        <mxCell id="86CAOPFkjnfypf_7lXeF-217" style="edgeStyle=orthogonalEdgeStyle;rounded=0;orthogonalLoop=1;jettySize=auto;html=1;strokeColor=#CC0000;strokeWidth=5;fillColor=#CC0000;gradientColor=none;flowAnimation=0;exitX=0.823;exitY=-0.01;exitDx=0;exitDy=0;exitPerimeter=0;" parent="WIyWlLk6GJQsqaUBKTNV-1" source="86CAOPFkjnfypf_7lXeF-4" target="86CAOPFkjnfypf_7lXeF-8" edge="1">
          <mxGeometry relative="1" as="geometry">
            <mxPoint x="3257.9310344827586" y="698.7612903225804" as="sourcePoint" />
            <mxPoint x="3547.3706896551726" y="698.7612903225804" as="targetPoint" />
            <Array as="points">
              <mxPoint x="3189.8275862068967" y="524.8745519713261" />
              <mxPoint x="3189.8275862068967" y="670.7526881720432" />
            </Array>
          </mxGeometry>
        </mxCell>
        <mxCell id="86CAOPFkjnfypf_7lXeF-219" style="edgeStyle=orthogonalEdgeStyle;rounded=0;orthogonalLoop=1;jettySize=auto;html=1;entryX=0;entryY=0.5;entryDx=0;entryDy=0;strokeColor=#6666FF;strokeWidth=5;fillColor=#CC0000;gradientColor=none;flowAnimation=0;exitX=0.177;exitY=0.013;exitDx=0;exitDy=0;fontColor=#6666FF;exitPerimeter=0;" parent="WIyWlLk6GJQsqaUBKTNV-1" source="86CAOPFkjnfypf_7lXeF-8" target="86CAOPFkjnfypf_7lXeF-10" edge="1">
          <mxGeometry relative="1" as="geometry">
            <mxPoint x="5539.396551724139" y="1122.974910394265" as="sourcePoint" />
            <mxPoint x="5828.836206896552" y="1122.974910394265" as="targetPoint" />
            <Array as="points">
              <mxPoint x="4730" y="-117" />
              <mxPoint x="4730" y="-200" />
              <mxPoint x="5488" y="-200" />
            </Array>
          </mxGeometry>
        </mxCell>
        <mxCell id="86CAOPFkjnfypf_7lXeF-221" style="edgeStyle=orthogonalEdgeStyle;rounded=0;orthogonalLoop=1;jettySize=auto;html=1;entryX=0.855;entryY=0.942;entryDx=0;entryDy=0;strokeColor=#CC0000;strokeWidth=5;fillColor=#CC0000;gradientColor=none;flowAnimation=0;exitX=0.975;exitY=-0.015;exitDx=0;exitDy=0;fontColor=#6666FF;exitPerimeter=0;entryPerimeter=0;" parent="WIyWlLk6GJQsqaUBKTNV-1" source="86CAOPFkjnfypf_7lXeF-8" target="86CAOPFkjnfypf_7lXeF-11" edge="1">
          <mxGeometry relative="1" as="geometry">
            <mxPoint x="4943.491379310345" y="626.989247311828" as="sourcePoint" />
            <mxPoint x="5232.931034482759" y="626.989247311828" as="targetPoint" />
          </mxGeometry>
        </mxCell>
        <mxCell id="86CAOPFkjnfypf_7lXeF-222" style="edgeStyle=orthogonalEdgeStyle;rounded=0;orthogonalLoop=1;jettySize=auto;html=1;entryX=0.862;entryY=1.001;entryDx=0;entryDy=0;strokeColor=#CC0000;strokeWidth=5;fillColor=#CC0000;gradientColor=none;flowAnimation=0;exitX=0.849;exitY=-0.033;exitDx=0;exitDy=0;fontColor=#6666FF;exitPerimeter=0;entryPerimeter=0;" parent="WIyWlLk6GJQsqaUBKTNV-1" source="86CAOPFkjnfypf_7lXeF-11" target="86CAOPFkjnfypf_7lXeF-12" edge="1">
          <mxGeometry relative="1" as="geometry">
            <mxPoint x="6543.922413793104" y="554.0501792114696" as="sourcePoint" />
            <mxPoint x="6833.362068965517" y="554.0501792114696" as="targetPoint" />
          </mxGeometry>
        </mxCell>
        <mxCell id="86CAOPFkjnfypf_7lXeF-224" style="edgeStyle=orthogonalEdgeStyle;rounded=0;orthogonalLoop=1;jettySize=auto;html=1;entryX=0.78;entryY=1.003;entryDx=0;entryDy=0;strokeColor=#660000;strokeWidth=5;fillColor=#CC0000;gradientColor=none;flowAnimation=0;entryPerimeter=0;" parent="WIyWlLk6GJQsqaUBKTNV-1" target="86CAOPFkjnfypf_7lXeF-11" edge="1">
          <mxGeometry relative="1" as="geometry">
            <mxPoint x="4807.284482758621" y="1473.0824372759857" as="sourcePoint" />
            <mxPoint x="5879.913793103448" y="1473.0824372759857" as="targetPoint" />
            <Array as="points">
              <mxPoint x="5658.577586206897" y="1473.0824372759857" />
              <mxPoint x="5658.577586206897" y="482.56989247311867" />
            </Array>
          </mxGeometry>
        </mxCell>
        <mxCell id="86CAOPFkjnfypf_7lXeF-225" style="edgeStyle=orthogonalEdgeStyle;rounded=0;orthogonalLoop=1;jettySize=auto;html=1;entryX=0.823;entryY=1;entryDx=0;entryDy=0;strokeColor=#660000;strokeWidth=5;fillColor=#CC0000;gradientColor=none;flowAnimation=0;entryPerimeter=0;" parent="WIyWlLk6GJQsqaUBKTNV-1" target="86CAOPFkjnfypf_7lXeF-11" edge="1">
          <mxGeometry relative="1" as="geometry">
            <mxPoint x="4739.181034482759" y="1546.0215053763445" as="sourcePoint" />
            <mxPoint x="6135.301724137931" y="1443.9068100358427" as="targetPoint" />
            <Array as="points">
              <mxPoint x="5777.758620689656" y="1546.0215053763445" />
              <mxPoint x="5777.758620689656" y="524.8745519713261" />
            </Array>
          </mxGeometry>
        </mxCell>
        <mxCell id="86CAOPFkjnfypf_7lXeF-226" style="edgeStyle=orthogonalEdgeStyle;rounded=0;orthogonalLoop=1;jettySize=auto;html=1;strokeColor=#cc0000;strokeWidth=5;fillColor=#CC0000;gradientColor=none;flowAnimation=0;entryX=0.35;entryY=1.067;entryDx=0;entryDy=0;entryPerimeter=0;" parent="WIyWlLk6GJQsqaUBKTNV-1" target="86CAOPFkjnfypf_7lXeF-11" edge="1">
          <mxGeometry relative="1" as="geometry">
            <mxPoint x="4705.129310344828" y="203.9426523297493" as="sourcePoint" />
            <mxPoint x="5811.810344827587" y="320.6451612903229" as="targetPoint" />
            <Array as="points">
              <mxPoint x="4705.129310344828" y="203.9426523297493" />
              <mxPoint x="4705.129310344828" y="-321.2186379928314" />
              <mxPoint x="5692.629310344828" y="-321.2186379928314" />
              <mxPoint x="5692.629310344828" y="55.14695340501817" />
            </Array>
          </mxGeometry>
        </mxCell>
        <mxCell id="86CAOPFkjnfypf_7lXeF-228" style="edgeStyle=orthogonalEdgeStyle;rounded=0;orthogonalLoop=1;jettySize=auto;html=1;entryX=0.302;entryY=1.031;entryDx=0;entryDy=0;strokeColor=#cc0000;strokeWidth=5;fillColor=#CC0000;gradientColor=none;flowAnimation=0;entryPerimeter=0;" parent="WIyWlLk6GJQsqaUBKTNV-1" target="86CAOPFkjnfypf_7lXeF-11" edge="1">
          <mxGeometry relative="1" as="geometry">
            <mxPoint x="4960.517241379311" y="-58.63799283154117" as="sourcePoint" />
            <mxPoint x="5948.017241379311" y="276.8963082437276" as="targetPoint" />
            <Array as="points">
              <mxPoint x="4960.517241379311" y="-219.10394265232958" />
              <mxPoint x="5828.836206896552" y="-219.10394265232958" />
              <mxPoint x="5828.836206896552" y="7.007168458781507" />
            </Array>
          </mxGeometry>
        </mxCell>
        <mxCell id="86CAOPFkjnfypf_7lXeF-229" style="edgeStyle=orthogonalEdgeStyle;rounded=0;orthogonalLoop=1;jettySize=auto;html=1;entryX=0.214;entryY=1.086;entryDx=0;entryDy=0;strokeColor=#cc0000;strokeWidth=5;fillColor=#CC0000;gradientColor=none;flowAnimation=0;exitX=0.301;exitY=-0.049;exitDx=0;exitDy=0;entryPerimeter=0;exitPerimeter=0;" parent="WIyWlLk6GJQsqaUBKTNV-1" source="86CAOPFkjnfypf_7lXeF-11" target="86CAOPFkjnfypf_7lXeF-12" edge="1">
          <mxGeometry relative="1" as="geometry">
            <mxPoint x="6118.275862068966" y="39.82974910394273" as="sourcePoint" />
            <mxPoint x="6458.793103448276" y="39.82974910394273" as="targetPoint" />
            <Array as="points">
              <mxPoint x="6424.741379310345" y="5.548387096774377" />
              <mxPoint x="6424.741379310345" y="-160.75268817204278" />
              <mxPoint x="7395.2155172413795" y="-160.75268817204278" />
              <mxPoint x="7395.2155172413795" y="-93.6487455197132" />
            </Array>
          </mxGeometry>
        </mxCell>
        <mxCell id="86CAOPFkjnfypf_7lXeF-230" style="edgeStyle=orthogonalEdgeStyle;rounded=0;orthogonalLoop=1;jettySize=auto;html=1;entryX=0.274;entryY=1.035;entryDx=0;entryDy=0;strokeColor=#cc0000;strokeWidth=5;fillColor=#CC0000;gradientColor=none;flowAnimation=0;exitX=0.349;exitY=-0.074;exitDx=0;exitDy=0;entryPerimeter=0;exitPerimeter=0;" parent="WIyWlLk6GJQsqaUBKTNV-1" source="86CAOPFkjnfypf_7lXeF-11" target="86CAOPFkjnfypf_7lXeF-12" edge="1">
          <mxGeometry relative="1" as="geometry">
            <mxPoint x="6152.327586206897" y="253.87673835125474" as="sourcePoint" />
            <mxPoint x="6492.844827586207" y="253.87673835125474" as="targetPoint" />
            <Array as="points">
              <mxPoint x="6458.793103448276" y="53.68817204301081" />
              <mxPoint x="6458.793103448276" y="-102.40143369175621" />
              <mxPoint x="7361.163793103448" y="-102.40143369175621" />
              <mxPoint x="7361.163793103448" y="-33.838709677419274" />
            </Array>
          </mxGeometry>
        </mxCell>
        <mxCell id="86CAOPFkjnfypf_7lXeF-232" style="edgeStyle=orthogonalEdgeStyle;rounded=0;orthogonalLoop=1;jettySize=auto;html=1;entryX=0.75;entryY=1;entryDx=0;entryDy=0;strokeColor=#660000;strokeWidth=5;fillColor=#CC0000;gradientColor=none;flowAnimation=0;exitX=0.78;exitY=0.041;exitDx=0;exitDy=0;exitPerimeter=0;entryPerimeter=0;" parent="WIyWlLk6GJQsqaUBKTNV-1" source="86CAOPFkjnfypf_7lXeF-11" target="86CAOPFkjnfypf_7lXeF-12" edge="1">
          <mxGeometry relative="1" as="geometry">
            <mxPoint x="6271.508620689656" y="729.1039426523298" as="sourcePoint" />
            <mxPoint x="6560.94827586207" y="729.1039426523298" as="targetPoint" />
            <Array as="points">
              <mxPoint x="6475.818965517242" y="482.56989247311867" />
              <mxPoint x="6475.818965517242" y="729.1039426523298" />
              <mxPoint x="7071.724137931034" y="729.1039426523298" />
              <mxPoint x="7071.724137931034" y="438.8064516129034" />
            </Array>
          </mxGeometry>
        </mxCell>
        <mxCell id="86CAOPFkjnfypf_7lXeF-233" style="edgeStyle=orthogonalEdgeStyle;rounded=0;orthogonalLoop=1;jettySize=auto;html=1;entryX=0.779;entryY=0.958;entryDx=0;entryDy=0;strokeColor=#660000;strokeWidth=5;fillColor=#CC0000;gradientColor=none;flowAnimation=0;exitX=0.829;exitY=-0.01;exitDx=0;exitDy=0;exitPerimeter=0;entryPerimeter=0;" parent="WIyWlLk6GJQsqaUBKTNV-1" source="86CAOPFkjnfypf_7lXeF-11" target="86CAOPFkjnfypf_7lXeF-12" edge="1">
          <mxGeometry relative="1" as="geometry">
            <mxPoint x="6220.431034482759" y="758.2795698924733" as="sourcePoint" />
            <mxPoint x="6509.870689655173" y="758.2795698924733" as="targetPoint" />
            <Array as="points">
              <mxPoint x="6441.767241379311" y="530.7096774193551" />
              <mxPoint x="6441.767241379311" y="772.8673835125451" />
              <mxPoint x="7139.827586206897" y="772.8673835125451" />
              <mxPoint x="7139.827586206897" y="466.52329749103956" />
              <mxPoint x="7490.560344827587" y="466.52329749103956" />
            </Array>
          </mxGeometry>
        </mxCell>
        <mxCell id="86CAOPFkjnfypf_7lXeF-235" style="edgeStyle=orthogonalEdgeStyle;rounded=0;orthogonalLoop=1;jettySize=auto;html=1;entryX=0;entryY=0.5;entryDx=0;entryDy=0;strokeColor=#6666FF;strokeWidth=5;fillColor=#CC0000;gradientColor=none;flowAnimation=0;exitX=1;exitY=0.5;exitDx=0;exitDy=0;fontColor=#6666FF;" parent="WIyWlLk6GJQsqaUBKTNV-1" source="86CAOPFkjnfypf_7lXeF-58" target="86CAOPFkjnfypf_7lXeF-7" edge="1">
          <mxGeometry relative="1" as="geometry">
            <mxPoint x="3564.396551724138" y="-890.1433691756272" as="sourcePoint" />
            <mxPoint x="3853.836206896552" y="-890.1433691756272" as="targetPoint" />
          </mxGeometry>
        </mxCell>
        <mxCell id="86CAOPFkjnfypf_7lXeF-236" style="edgeStyle=orthogonalEdgeStyle;rounded=0;orthogonalLoop=1;jettySize=auto;html=1;entryX=0.32;entryY=1.095;entryDx=0;entryDy=0;strokeColor=#CC0000;strokeWidth=5;fillColor=#CC0000;gradientColor=none;flowAnimation=0;exitX=0.287;exitY=-0.048;exitDx=0;exitDy=0;fontColor=#6666FF;exitPerimeter=0;entryPerimeter=0;" parent="WIyWlLk6GJQsqaUBKTNV-1" source="86CAOPFkjnfypf_7lXeF-12" target="86CAOPFkjnfypf_7lXeF-149" edge="1">
          <mxGeometry relative="1" as="geometry">
            <mxPoint x="7735.73275862069" y="-496.2724014336916" as="sourcePoint" />
            <mxPoint x="8025.172413793104" y="-496.2724014336916" as="targetPoint" />
            <Array as="points">
              <mxPoint x="7957.068965517242" y="-22.168458781361778" />
              <mxPoint x="7957.068965517242" y="303.1397849462369" />
            </Array>
          </mxGeometry>
        </mxCell>
        <mxCell id="86CAOPFkjnfypf_7lXeF-237" value="&lt;b&gt;&lt;font color=&quot;#b266ff&quot; style=&quot;font-size: 18px;&quot;&gt;MUX&lt;/font&gt;&lt;/b&gt;" style="shape=trapezoid;perimeter=trapezoidPerimeter;whiteSpace=wrap;html=1;fixedSize=1;direction=south;fillColor=#ffcccc;strokeColor=#36393d;container=0;" parent="WIyWlLk6GJQsqaUBKTNV-1" vertex="1">
          <mxGeometry x="8314.612068965518" y="-102.40143369175621" width="187.2844827586207" height="218.8172043010753" as="geometry" />
        </mxCell>
        <mxCell id="86CAOPFkjnfypf_7lXeF-239" style="edgeStyle=orthogonalEdgeStyle;rounded=0;orthogonalLoop=1;jettySize=auto;html=1;entryX=0.132;entryY=1.052;entryDx=0;entryDy=0;strokeColor=#CC0000;strokeWidth=5;fillColor=#CC0000;gradientColor=none;flowAnimation=0;exitX=0.21;exitY=-0.009;exitDx=0;exitDy=0;fontColor=#6666FF;exitPerimeter=0;entryPerimeter=0;" parent="WIyWlLk6GJQsqaUBKTNV-1" source="86CAOPFkjnfypf_7lXeF-12" target="86CAOPFkjnfypf_7lXeF-149" edge="1">
          <mxGeometry relative="1" as="geometry">
            <mxPoint x="8059.224137931035" y="-483.40594982078846" as="sourcePoint" />
            <mxPoint x="8348.66379310345" y="-483.40594982078846" as="targetPoint" />
            <Array as="points">
              <mxPoint x="7991.120689655173" y="-98.02508960573459" />
              <mxPoint x="7991.120689655173" y="262.2939068100361" />
            </Array>
          </mxGeometry>
        </mxCell>
        <mxCell id="86CAOPFkjnfypf_7lXeF-241" style="edgeStyle=orthogonalEdgeStyle;rounded=0;orthogonalLoop=1;jettySize=auto;html=1;entryX=0.165;entryY=1.022;entryDx=0;entryDy=0;strokeColor=#CC0000;strokeWidth=5;fillColor=#CC0000;gradientColor=none;flowAnimation=0;fontColor=#6666FF;entryPerimeter=0;" parent="WIyWlLk6GJQsqaUBKTNV-1" target="86CAOPFkjnfypf_7lXeF-237" edge="1">
          <mxGeometry relative="1" as="geometry">
            <mxPoint x="7957.068965517242" y="-0.2867383512543711" as="sourcePoint" />
            <mxPoint x="8331.637931034482" y="-527.1693906810035" as="targetPoint" />
          </mxGeometry>
        </mxCell>
        <mxCell id="86CAOPFkjnfypf_7lXeF-242" style="edgeStyle=orthogonalEdgeStyle;rounded=0;orthogonalLoop=1;jettySize=auto;html=1;entryX=0.337;entryY=0.992;entryDx=0;entryDy=0;strokeColor=#CC0000;strokeWidth=5;fillColor=#CC0000;gradientColor=none;flowAnimation=0;fontColor=#6666FF;entryPerimeter=0;" parent="WIyWlLk6GJQsqaUBKTNV-1" target="86CAOPFkjnfypf_7lXeF-237" edge="1">
          <mxGeometry relative="1" as="geometry">
            <mxPoint x="7991.120689655173" y="-87.81362007168445" as="sourcePoint" />
            <mxPoint x="8110.301724137931" y="-423.33333333333326" as="targetPoint" />
            <Array as="points">
              <mxPoint x="7991.120689655173" y="-86.35483870967732" />
              <mxPoint x="8195.431034482759" y="-86.35483870967732" />
              <mxPoint x="8195.431034482759" y="-28.003584229390526" />
              <mxPoint x="8316.314655172413" y="-28.003584229390526" />
            </Array>
          </mxGeometry>
        </mxCell>
        <mxCell id="86CAOPFkjnfypf_7lXeF-246" style="edgeStyle=orthogonalEdgeStyle;rounded=0;orthogonalLoop=1;jettySize=auto;html=1;strokeColor=#CC0000;strokeWidth=5;fillColor=#CC0000;gradientColor=none;flowAnimation=0;exitX=0.5;exitY=0;exitDx=0;exitDy=0;fontColor=#6666FF;entryX=1.007;entryY=0.645;entryDx=0;entryDy=0;entryPerimeter=0;" parent="WIyWlLk6GJQsqaUBKTNV-1" source="86CAOPFkjnfypf_7lXeF-237" target="86CAOPFkjnfypf_7lXeF-7" edge="1">
          <mxGeometry relative="1" as="geometry">
            <mxPoint x="7837.887931034483" y="-510.86021505376334" as="sourcePoint" />
            <mxPoint x="5760.73275862069" y="3077.741935483871" as="targetPoint" />
            <Array as="points">
              <mxPoint x="8535.948275862069" y="7.007168458781507" />
              <mxPoint x="8535.948275862069" y="2217.0609318996417" />
              <mxPoint x="3615.474137931035" y="2217.0609318996417" />
            </Array>
          </mxGeometry>
        </mxCell>
        <mxCell id="86CAOPFkjnfypf_7lXeF-247" style="edgeStyle=orthogonalEdgeStyle;rounded=0;orthogonalLoop=1;jettySize=auto;html=1;entryX=0.6;entryY=1;entryDx=0;entryDy=0;strokeColor=#CC0000;strokeWidth=5;fillColor=#CC0000;gradientColor=none;flowAnimation=0;fontColor=#6666FF;entryPerimeter=0;" parent="WIyWlLk6GJQsqaUBKTNV-1" target="86CAOPFkjnfypf_7lXeF-237" edge="1">
          <mxGeometry relative="1" as="geometry">
            <mxPoint x="7923.017241379311" y="145.5913978494625" as="sourcePoint" />
            <mxPoint x="8076.25" y="-379.5698924731182" as="targetPoint" />
          </mxGeometry>
        </mxCell>
        <mxCell id="86CAOPFkjnfypf_7lXeF-249" value="&lt;b&gt;&lt;font color=&quot;#b266ff&quot; style=&quot;font-size: 18px;&quot;&gt;MUX&lt;/font&gt;&lt;/b&gt;" style="shape=trapezoid;perimeter=trapezoidPerimeter;whiteSpace=wrap;html=1;fixedSize=1;direction=south;fillColor=#ffcccc;strokeColor=#36393d;container=0;" parent="WIyWlLk6GJQsqaUBKTNV-1" vertex="1">
          <mxGeometry x="8161.379310344828" y="685.340501792115" width="187.2844827586207" height="218.8172043010753" as="geometry" />
        </mxCell>
        <mxCell id="86CAOPFkjnfypf_7lXeF-250" style="edgeStyle=orthogonalEdgeStyle;rounded=0;orthogonalLoop=1;jettySize=auto;html=1;strokeColor=#660000;strokeWidth=5;fillColor=#CC0000;gradientColor=none;flowAnimation=0;exitX=0.792;exitY=-0.029;exitDx=0;exitDy=0;exitPerimeter=0;entryX=1;entryY=0.25;entryDx=0;entryDy=0;" parent="WIyWlLk6GJQsqaUBKTNV-1" source="86CAOPFkjnfypf_7lXeF-12" target="86CAOPFkjnfypf_7lXeF-7" edge="1">
          <mxGeometry relative="1" as="geometry">
            <mxPoint x="8127.327586206897" y="-248.2795698924731" as="sourcePoint" />
            <mxPoint x="3990.0431034482763" y="481.1111111111113" as="targetPoint" />
            <Array as="points">
              <mxPoint x="8570" y="481.1111111111113" />
              <mxPoint x="8570" y="2290.0000000000005" />
              <mxPoint x="3824.8922413793107" y="2290.0000000000005" />
            </Array>
          </mxGeometry>
        </mxCell>
        <mxCell id="86CAOPFkjnfypf_7lXeF-252" style="edgeStyle=orthogonalEdgeStyle;rounded=0;orthogonalLoop=1;jettySize=auto;html=1;entryX=0.588;entryY=1.046;entryDx=0;entryDy=0;strokeColor=#660000;strokeWidth=5;fillColor=#CC0000;gradientColor=none;flowAnimation=0;exitX=0.947;exitY=-0.042;exitDx=0;exitDy=0;exitPerimeter=0;entryPerimeter=0;" parent="WIyWlLk6GJQsqaUBKTNV-1" source="86CAOPFkjnfypf_7lXeF-12" target="86CAOPFkjnfypf_7lXeF-249" edge="1">
          <mxGeometry relative="1" as="geometry">
            <mxPoint x="7667.629310344828" y="449.68896057347683" as="sourcePoint" />
            <mxPoint x="7957.068965517242" y="449.68896057347683" as="targetPoint" />
            <Array as="points">
              <mxPoint x="7786.810344827587" y="634.2831541218638" />
              <mxPoint x="7786.810344827587" y="813.7132616487456" />
            </Array>
          </mxGeometry>
        </mxCell>
        <mxCell id="86CAOPFkjnfypf_7lXeF-253" style="edgeStyle=orthogonalEdgeStyle;rounded=0;orthogonalLoop=1;jettySize=auto;html=1;entryX=0.177;entryY=1.037;entryDx=0;entryDy=0;strokeColor=#660000;strokeWidth=5;fillColor=#CC0000;gradientColor=none;flowAnimation=0;exitX=0.75;exitY=0;exitDx=0;exitDy=0;exitPerimeter=0;entryPerimeter=0;" parent="WIyWlLk6GJQsqaUBKTNV-1" source="86CAOPFkjnfypf_7lXeF-12" target="86CAOPFkjnfypf_7lXeF-249" edge="1">
          <mxGeometry relative="1" as="geometry">
            <mxPoint x="8144.353448275862" y="-175.34050179211454" as="sourcePoint" />
            <mxPoint x="8433.793103448275" y="-175.34050179211454" as="targetPoint" />
          </mxGeometry>
        </mxCell>
        <mxCell id="86CAOPFkjnfypf_7lXeF-0" value="&lt;font style=&quot;font-size: 40px;&quot; color=&quot;#b266ff&quot;&gt;&lt;b style=&quot;font-size: 40px;&quot;&gt;PC&lt;/b&gt;&lt;/font&gt;" style="rounded=1;whiteSpace=wrap;html=1;direction=south;fillColor=#f5f5f5;strokeColor=#666666;fontColor=#333333;shadow=0;glass=0;container=0;fontSize=40;" parent="WIyWlLk6GJQsqaUBKTNV-1" vertex="1">
          <mxGeometry x="1385.0862068965516" y="189.3548387096776" width="238.36206896551727" height="131.29032258064518" as="geometry" />
        </mxCell>
        <mxCell id="86CAOPFkjnfypf_7lXeF-2" value="&lt;font style=&quot;font-size: 40px;&quot; color=&quot;#b266ff&quot;&gt;&lt;b style=&quot;font-size: 40px;&quot;&gt;Instruction&lt;/b&gt;&lt;/font&gt;&lt;div style=&quot;font-size: 40px;&quot;&gt;&lt;font style=&quot;font-size: 40px;&quot; color=&quot;#b266ff&quot;&gt;&lt;b style=&quot;font-size: 40px;&quot;&gt;Memory&lt;/b&gt;&lt;/font&gt;&lt;/div&gt;" style="rounded=1;whiteSpace=wrap;html=1;direction=south;fillColor=#f5f5f5;strokeColor=#666666;fontColor=#333333;shadow=0;glass=0;container=0;fontSize=40;" parent="WIyWlLk6GJQsqaUBKTNV-1" vertex="1">
          <mxGeometry x="1827.7586206896553" y="39.82974910394282" width="374.5689655172414" height="430.3405017921147" as="geometry" />
        </mxCell>
        <mxCell id="86CAOPFkjnfypf_7lXeF-6" style="edgeStyle=orthogonalEdgeStyle;rounded=0;orthogonalLoop=1;jettySize=auto;html=1;entryX=0.5;entryY=1;entryDx=0;entryDy=0;strokeColor=#CC0000;strokeWidth=5;fillColor=#CC0000;gradientColor=none;flowAnimation=0;" parent="WIyWlLk6GJQsqaUBKTNV-1" target="86CAOPFkjnfypf_7lXeF-2" edge="1">
          <mxGeometry relative="1" as="geometry">
            <mxPoint x="1623.4482758620688" y="253.96426523297504" as="sourcePoint" />
            <mxPoint x="1878.8362068965516" y="254.4602508960577" as="targetPoint" />
          </mxGeometry>
        </mxCell>
        <mxCell id="86CAOPFkjnfypf_7lXeF-20" style="edgeStyle=orthogonalEdgeStyle;rounded=0;orthogonalLoop=1;jettySize=auto;html=1;entryX=0.5;entryY=1;entryDx=0;entryDy=0;strokeColor=#660000;strokeWidth=5;fillColor=#CC0000;gradientColor=none;flowAnimation=0;exitX=0.5;exitY=0;exitDx=0;exitDy=0;" parent="WIyWlLk6GJQsqaUBKTNV-1" edge="1">
          <mxGeometry relative="1" as="geometry">
            <mxPoint x="1385.0862068965516" y="1254.2652329749108" as="sourcePoint" />
            <mxPoint x="1674.5258620689656" y="1254.2652329749108" as="targetPoint" />
          </mxGeometry>
        </mxCell>
        <mxCell id="86CAOPFkjnfypf_7lXeF-22" value="&lt;b&gt;&lt;font color=&quot;#b266ff&quot; style=&quot;font-size: 18px;&quot;&gt;MUX&lt;/font&gt;&lt;/b&gt;" style="shape=trapezoid;perimeter=trapezoidPerimeter;whiteSpace=wrap;html=1;fixedSize=1;direction=south;fillColor=#ffcccc;strokeColor=#36393d;container=0;" parent="WIyWlLk6GJQsqaUBKTNV-1" vertex="1">
          <mxGeometry x="2440.689655172414" y="94.53405017921165" width="187.2844827586207" height="218.8172043010753" as="geometry" />
        </mxCell>
        <mxCell id="86CAOPFkjnfypf_7lXeF-25" style="edgeStyle=orthogonalEdgeStyle;rounded=0;orthogonalLoop=1;jettySize=auto;html=1;entryX=0.25;entryY=1;entryDx=0;entryDy=0;strokeColor=#CC0000;strokeWidth=5;fillColor=#CC0000;gradientColor=none;flowAnimation=0;exitX=0.25;exitY=0;exitDx=0;exitDy=0;" parent="WIyWlLk6GJQsqaUBKTNV-1" source="86CAOPFkjnfypf_7lXeF-2" target="86CAOPFkjnfypf_7lXeF-22" edge="1">
          <mxGeometry relative="1" as="geometry">
            <mxPoint x="2270.4310344827586" y="166.0143369175629" as="sourcePoint" />
            <mxPoint x="2406.637931034483" y="161.2149462365594" as="targetPoint" />
          </mxGeometry>
        </mxCell>
        <mxCell id="86CAOPFkjnfypf_7lXeF-26" style="edgeStyle=orthogonalEdgeStyle;rounded=0;orthogonalLoop=1;jettySize=auto;html=1;entryX=0.682;entryY=1;entryDx=0;entryDy=0;strokeColor=#CC0000;strokeWidth=5;fillColor=#CC0000;gradientColor=none;flowAnimation=0;entryPerimeter=0;exitX=0.75;exitY=0;exitDx=0;exitDy=0;" parent="WIyWlLk6GJQsqaUBKTNV-1" source="86CAOPFkjnfypf_7lXeF-2" target="86CAOPFkjnfypf_7lXeF-22" edge="1">
          <mxGeometry relative="1" as="geometry">
            <mxPoint x="2253.405172413793" y="253.77462365591396" as="sourcePoint" />
            <mxPoint x="2457.7155172413795" y="254.8103584229391" as="targetPoint" />
          </mxGeometry>
        </mxCell>
        <mxCell id="86CAOPFkjnfypf_7lXeF-27" value="&lt;font style=&quot;font-size: 20px;&quot;&gt;&lt;b&gt;Data&lt;/b&gt;&lt;/font&gt;" style="text;html=1;align=center;verticalAlign=middle;whiteSpace=wrap;rounded=0;fontColor=#CC0000;container=0;" parent="WIyWlLk6GJQsqaUBKTNV-1" vertex="1">
          <mxGeometry x="1674.5258620689656" y="1093.7992831541221" width="221.33620689655174" height="43.763440860215056" as="geometry" />
        </mxCell>
        <mxCell id="86CAOPFkjnfypf_7lXeF-29" value="&lt;font style=&quot;font-size: 20px;&quot;&gt;&lt;b&gt;Address&lt;/b&gt;&lt;/font&gt;" style="text;html=1;align=center;verticalAlign=middle;whiteSpace=wrap;rounded=0;fontColor=#660000;container=0;" parent="WIyWlLk6GJQsqaUBKTNV-1" vertex="1">
          <mxGeometry x="1674.5258620689656" y="1225.0896057347672" width="221.33620689655174" height="43.763440860215056" as="geometry" />
        </mxCell>
        <mxCell id="86CAOPFkjnfypf_7lXeF-30" value="&lt;font style=&quot;font-size: 20px;&quot;&gt;&lt;b&gt;Control&lt;/b&gt;&lt;/font&gt;" style="text;html=1;align=center;verticalAlign=middle;whiteSpace=wrap;rounded=0;fontColor=#6666FF;container=0;" parent="WIyWlLk6GJQsqaUBKTNV-1" vertex="1">
          <mxGeometry x="1674.5258620689656" y="1166.7383512544804" width="221.33620689655174" height="43.763440860215056" as="geometry" />
        </mxCell>
        <mxCell id="86CAOPFkjnfypf_7lXeF-36" style="edgeStyle=orthogonalEdgeStyle;rounded=0;orthogonalLoop=1;jettySize=auto;html=1;entryX=0.5;entryY=1;entryDx=0;entryDy=0;strokeColor=#CC6600;strokeWidth=5;fillColor=#CC0000;gradientColor=none;flowAnimation=0;exitX=0.5;exitY=0;exitDx=0;exitDy=0;" parent="WIyWlLk6GJQsqaUBKTNV-1" edge="1">
          <mxGeometry relative="1" as="geometry">
            <mxPoint x="1385.0862068965516" y="1327.204301075269" as="sourcePoint" />
            <mxPoint x="1674.5258620689656" y="1327.204301075269" as="targetPoint" />
          </mxGeometry>
        </mxCell>
        <mxCell id="86CAOPFkjnfypf_7lXeF-37" value="Flag" style="text;html=1;align=center;verticalAlign=middle;whiteSpace=wrap;rounded=0;fontColor=#CC6600;fontSize=20;fontStyle=1;strokeColor=#FFFFFF;strokeWidth=0;container=0;" parent="WIyWlLk6GJQsqaUBKTNV-1" vertex="1">
          <mxGeometry x="1674.5258620689656" y="1312.6164874551973" width="221.33620689655174" height="43.763440860215056" as="geometry" />
        </mxCell>
        <mxCell id="86CAOPFkjnfypf_7lXeF-81" value="&lt;b&gt;&lt;font color=&quot;#b266ff&quot; style=&quot;font-size: 18px;&quot;&gt;MUX&lt;/font&gt;&lt;/b&gt;" style="shape=trapezoid;perimeter=trapezoidPerimeter;whiteSpace=wrap;html=1;fixedSize=1;direction=south;fillColor=#ffcccc;strokeColor=#36393d;container=0;" parent="WIyWlLk6GJQsqaUBKTNV-1" vertex="1">
          <mxGeometry x="1010.5172413793103" y="145.59139784946257" width="187.2844827586207" height="218.8172043010753" as="geometry" />
        </mxCell>
        <mxCell id="86CAOPFkjnfypf_7lXeF-82" value="Adder" style="shape=step;perimeter=stepPerimeter;whiteSpace=wrap;html=1;fixedSize=1;fillColor=#ffff88;strokeColor=#36393d;fontSize=20;fontColor=#B266FF;container=0;" parent="WIyWlLk6GJQsqaUBKTNV-1" vertex="1">
          <mxGeometry x="1912.8879310344828" y="-175.34050179211454" width="204.31034482758622" height="116.70250896057348" as="geometry" />
        </mxCell>
        <mxCell id="86CAOPFkjnfypf_7lXeF-85" style="edgeStyle=orthogonalEdgeStyle;rounded=0;orthogonalLoop=1;jettySize=auto;html=1;entryX=0.5;entryY=1;entryDx=0;entryDy=0;strokeColor=#CC0000;strokeWidth=5;fillColor=#CC0000;gradientColor=none;flowAnimation=0;exitX=0.5;exitY=0;exitDx=0;exitDy=0;" parent="WIyWlLk6GJQsqaUBKTNV-1" source="86CAOPFkjnfypf_7lXeF-81" target="86CAOPFkjnfypf_7lXeF-0" edge="1">
          <mxGeometry relative="1" as="geometry">
            <mxPoint x="1453.189655172414" y="495.69892473118296" as="sourcePoint" />
            <mxPoint x="1657.5" y="496.7346594982082" as="targetPoint" />
          </mxGeometry>
        </mxCell>
        <mxCell id="86CAOPFkjnfypf_7lXeF-86" style="edgeStyle=orthogonalEdgeStyle;rounded=0;orthogonalLoop=1;jettySize=auto;html=1;strokeColor=#CC0000;strokeWidth=5;fillColor=#CC0000;gradientColor=none;flowAnimation=0;entryX=0.012;entryY=0.881;entryDx=0;entryDy=0;entryPerimeter=0;" parent="WIyWlLk6GJQsqaUBKTNV-1" target="86CAOPFkjnfypf_7lXeF-82" edge="1">
          <mxGeometry relative="1" as="geometry">
            <mxPoint x="1691.5517241379312" y="262.29390681003605" as="sourcePoint" />
            <mxPoint x="1793.7068965517242" y="-73.22580645161274" as="targetPoint" />
            <Array as="points">
              <mxPoint x="1691.5517241379312" y="-71.76702508960557" />
            </Array>
          </mxGeometry>
        </mxCell>
        <mxCell id="86CAOPFkjnfypf_7lXeF-87" style="edgeStyle=orthogonalEdgeStyle;rounded=0;orthogonalLoop=1;jettySize=auto;html=1;entryX=0.113;entryY=0.39;entryDx=0;entryDy=0;strokeColor=#CC0000;strokeWidth=5;fillColor=#CC0000;gradientColor=none;flowAnimation=0;exitX=0.5;exitY=0;exitDx=0;exitDy=0;entryPerimeter=0;" parent="WIyWlLk6GJQsqaUBKTNV-1" target="86CAOPFkjnfypf_7lXeF-82" edge="1">
          <mxGeometry relative="1" as="geometry">
            <mxPoint x="1674.5258620689656" y="-131.5770609318995" as="sourcePoint" />
            <mxPoint x="1861.8103448275863" y="-131.5770609318995" as="targetPoint" />
          </mxGeometry>
        </mxCell>
        <mxCell id="86CAOPFkjnfypf_7lXeF-293" value="&lt;font style=&quot;font-size: 32px;&quot; color=&quot;#0000ff&quot;&gt;&lt;b style=&quot;font-size: 32px;&quot;&gt;+1&lt;/b&gt;&lt;/font&gt;" style="edgeLabel;html=1;align=center;verticalAlign=middle;resizable=0;points=[];fontSize=32;" parent="86CAOPFkjnfypf_7lXeF-87" vertex="1" connectable="0">
          <mxGeometry x="-0.3799" y="1" relative="1" as="geometry">
            <mxPoint x="-1" as="offset" />
          </mxGeometry>
        </mxCell>
        <mxCell id="86CAOPFkjnfypf_7lXeF-162" style="edgeStyle=orthogonalEdgeStyle;rounded=0;orthogonalLoop=1;jettySize=auto;html=1;entryX=0.5;entryY=1;entryDx=0;entryDy=0;strokeColor=#6666FF;strokeWidth=5;fillColor=#CC0000;gradientColor=none;flowAnimation=0;exitX=0.5;exitY=0;exitDx=0;exitDy=0;fontColor=#6666FF;" parent="WIyWlLk6GJQsqaUBKTNV-1" edge="1">
          <mxGeometry relative="1" as="geometry">
            <mxPoint x="1385.0862068965516" y="1195.913978494624" as="sourcePoint" />
            <mxPoint x="1674.5258620689656" y="1195.913978494624" as="targetPoint" />
          </mxGeometry>
        </mxCell>
        <mxCell id="86CAOPFkjnfypf_7lXeF-220" style="edgeStyle=orthogonalEdgeStyle;rounded=0;orthogonalLoop=1;jettySize=auto;html=1;entryX=0.5;entryY=1;entryDx=0;entryDy=0;strokeColor=#CC0000;strokeWidth=5;fillColor=#CC0000;gradientColor=none;flowAnimation=0;exitX=0.5;exitY=0;exitDx=0;exitDy=0;fontColor=#6666FF;" parent="WIyWlLk6GJQsqaUBKTNV-1" edge="1">
          <mxGeometry relative="1" as="geometry">
            <mxPoint x="1385.0862068965516" y="1114.951612903226" as="sourcePoint" />
            <mxPoint x="1674.5258620689656" y="1114.951612903226" as="targetPoint" />
          </mxGeometry>
        </mxCell>
        <mxCell id="86CAOPFkjnfypf_7lXeF-286" value="Flag Register" style="rounded=1;whiteSpace=wrap;html=1;direction=south;fillColor=#f5f5f5;strokeColor=#0000FF;fontColor=#0000FF;shadow=0;glass=0;container=0;fontSize=25;fontStyle=1" parent="WIyWlLk6GJQsqaUBKTNV-1" vertex="1">
          <mxGeometry x="5340" y="1036.6" width="260.56" height="123.4" as="geometry" />
        </mxCell>
        <mxCell id="86CAOPFkjnfypf_7lXeF-294" value="&lt;b style=&quot;font-size: 17px;&quot;&gt;Address&lt;/b&gt;" style="text;html=1;align=center;verticalAlign=middle;whiteSpace=wrap;rounded=0;fontColor=#990000;fontSize=17;" parent="WIyWlLk6GJQsqaUBKTNV-1" vertex="1">
          <mxGeometry x="1836" y="70" width="84" height="30" as="geometry" />
        </mxCell>
        <mxCell id="86CAOPFkjnfypf_7lXeF-296" value="01" style="text;html=1;align=center;verticalAlign=middle;whiteSpace=wrap;rounded=0;fontColor=#990000;fontSize=17;" parent="WIyWlLk6GJQsqaUBKTNV-1" vertex="1">
          <mxGeometry x="1010.52" y="240.00000000000003" width="56" height="30" as="geometry" />
        </mxCell>
        <mxCell id="86CAOPFkjnfypf_7lXeF-298" value="00" style="text;html=1;align=center;verticalAlign=middle;whiteSpace=wrap;rounded=0;fontColor=#990000;fontSize=17;" parent="WIyWlLk6GJQsqaUBKTNV-1" vertex="1">
          <mxGeometry x="1011.56" y="189.35" width="54.96" height="30" as="geometry" />
        </mxCell>
        <mxCell id="86CAOPFkjnfypf_7lXeF-304" value="&lt;font color=&quot;#9999ff&quot; style=&quot;font-size: 22px;&quot;&gt;Propagate&amp;nbsp; &amp;nbsp;PC + 1 to use in (ask tarek)&lt;/font&gt;" style="edgeLabel;html=1;align=center;verticalAlign=middle;resizable=0;points=[];" parent="WIyWlLk6GJQsqaUBKTNV-1" vertex="1" connectable="0">
          <mxGeometry x="1230" y="500" as="geometry" />
        </mxCell>
        <mxCell id="86CAOPFkjnfypf_7lXeF-305" value="&lt;font color=&quot;#9999ff&quot; style=&quot;font-size: 22px;&quot;&gt;Branching PC&lt;/font&gt;" style="edgeLabel;html=1;align=center;verticalAlign=middle;resizable=0;points=[];" parent="WIyWlLk6GJQsqaUBKTNV-1" vertex="1" connectable="0">
          <mxGeometry x="1380" y="1560" as="geometry" />
        </mxCell>
        <mxCell id="86CAOPFkjnfypf_7lXeF-310" value="&lt;font color=&quot;#9999ff&quot; style=&quot;font-size: 22px;&quot;&gt;IF Flush&lt;/font&gt;" style="edgeLabel;html=1;align=center;verticalAlign=middle;resizable=0;points=[];" parent="WIyWlLk6GJQsqaUBKTNV-1" vertex="1" connectable="0">
          <mxGeometry x="1240" y="620" as="geometry">
            <mxPoint x="9" y="30" as="offset" />
          </mxGeometry>
        </mxCell>
        <mxCell id="86CAOPFkjnfypf_7lXeF-311" value="&lt;font color=&quot;#9999ff&quot; style=&quot;font-size: 22px;&quot;&gt;Read address 1&lt;/font&gt;" style="edgeLabel;html=1;align=center;verticalAlign=middle;resizable=0;points=[];" parent="WIyWlLk6GJQsqaUBKTNV-1" vertex="1" connectable="0">
          <mxGeometry x="3520" as="geometry" />
        </mxCell>
        <mxCell id="86CAOPFkjnfypf_7lXeF-312" value="&lt;font color=&quot;#9999ff&quot; style=&quot;font-size: 22px;&quot;&gt;Read address 2&lt;/font&gt;" style="edgeLabel;html=1;align=center;verticalAlign=middle;resizable=0;points=[];" parent="WIyWlLk6GJQsqaUBKTNV-1" vertex="1" connectable="0">
          <mxGeometry x="3520" y="50" as="geometry" />
        </mxCell>
        <mxCell id="86CAOPFkjnfypf_7lXeF-313" value="&lt;font color=&quot;#9999ff&quot; style=&quot;font-size: 22px;&quot;&gt;Write addresses 1,2&lt;/font&gt;" style="edgeLabel;html=1;align=center;verticalAlign=middle;resizable=0;points=[];" parent="WIyWlLk6GJQsqaUBKTNV-1" vertex="1" connectable="0">
          <mxGeometry x="3850" y="451.94" as="geometry" />
        </mxCell>
        <mxCell id="86CAOPFkjnfypf_7lXeF-314" value="&lt;font color=&quot;#9999ff&quot; style=&quot;font-size: 22px;&quot;&gt;Write data 1,2&lt;/font&gt;" style="edgeLabel;html=1;align=center;verticalAlign=middle;resizable=0;points=[];" parent="WIyWlLk6GJQsqaUBKTNV-1" vertex="1" connectable="0">
          <mxGeometry x="3670" y="451.94" as="geometry" />
        </mxCell>
        <mxCell id="86CAOPFkjnfypf_7lXeF-315" value="&lt;font color=&quot;#9999ff&quot;&gt;&lt;span style=&quot;font-size: 22px;&quot;&gt;Read data 1&lt;/span&gt;&lt;/font&gt;" style="edgeLabel;html=1;align=center;verticalAlign=middle;resizable=0;points=[];" parent="WIyWlLk6GJQsqaUBKTNV-1" vertex="1" connectable="0">
          <mxGeometry x="4190" y="116.42" as="geometry" />
        </mxCell>
        <mxCell id="86CAOPFkjnfypf_7lXeF-316" value="&lt;font color=&quot;#9999ff&quot;&gt;&lt;span style=&quot;font-size: 22px;&quot;&gt;Read data 2&lt;/span&gt;&lt;/font&gt;" style="edgeLabel;html=1;align=center;verticalAlign=middle;resizable=0;points=[];" parent="WIyWlLk6GJQsqaUBKTNV-1" vertex="1" connectable="0">
          <mxGeometry x="4110" y="204.35" as="geometry" />
        </mxCell>
        <mxCell id="86CAOPFkjnfypf_7lXeF-317" value="&lt;font color=&quot;#9999ff&quot; style=&quot;font-size: 22px;&quot;&gt;Immediate flag feedback&lt;/font&gt;" style="edgeLabel;html=1;align=center;verticalAlign=middle;resizable=0;points=[];" parent="WIyWlLk6GJQsqaUBKTNV-1" vertex="1" connectable="0">
          <mxGeometry x="2510" y="430" as="geometry" />
        </mxCell>
        <mxCell id="86CAOPFkjnfypf_7lXeF-318" value="&lt;font color=&quot;#9999ff&quot; style=&quot;font-size: 22px;&quot;&gt;Immediate flag&lt;/font&gt;" style="edgeLabel;html=1;align=center;verticalAlign=middle;resizable=0;points=[];" parent="WIyWlLk6GJQsqaUBKTNV-1" vertex="1" connectable="0">
          <mxGeometry x="3210" y="700.85" as="geometry" />
        </mxCell>
        <mxCell id="86CAOPFkjnfypf_7lXeF-319" value="&lt;font color=&quot;#9999ff&quot; style=&quot;font-size: 22px;&quot;&gt;Immediate&lt;/font&gt;" style="edgeLabel;html=1;align=center;verticalAlign=middle;resizable=0;points=[];" parent="WIyWlLk6GJQsqaUBKTNV-1" vertex="1" connectable="0">
          <mxGeometry x="2310" y="313.35" as="geometry" />
        </mxCell>
        <mxCell id="86CAOPFkjnfypf_7lXeF-320" value="&lt;font color=&quot;#9999ff&quot; style=&quot;font-size: 22px;&quot;&gt;Instruction&lt;/font&gt;" style="edgeLabel;html=1;align=center;verticalAlign=middle;resizable=0;points=[];" parent="WIyWlLk6GJQsqaUBKTNV-1" vertex="1" connectable="0">
          <mxGeometry x="2280" y="120.00000000000003" as="geometry">
            <mxPoint x="24" y="4" as="offset" />
          </mxGeometry>
        </mxCell>
        <mxCell id="86CAOPFkjnfypf_7lXeF-322" style="edgeStyle=orthogonalEdgeStyle;rounded=0;orthogonalLoop=1;jettySize=auto;html=1;entryX=0.581;entryY=0.983;entryDx=0;entryDy=0;strokeColor=#CC0000;strokeWidth=5;fillColor=#CC0000;gradientColor=none;flowAnimation=0;fontColor=#6666FF;entryPerimeter=0;" parent="WIyWlLk6GJQsqaUBKTNV-1" source="86CAOPFkjnfypf_7lXeF-44" target="86CAOPFkjnfypf_7lXeF-8" edge="1">
          <mxGeometry relative="1" as="geometry">
            <mxPoint x="4370" y="281" as="sourcePoint" />
            <mxPoint x="4589.439655172414" y="860" as="targetPoint" />
          </mxGeometry>
        </mxCell>
        <mxCell id="86CAOPFkjnfypf_7lXeF-323" value="&lt;font color=&quot;#9999ff&quot;&gt;&lt;span style=&quot;font-size: 22px;&quot;&gt;Choose between immediate and data 2&lt;/span&gt;&lt;/font&gt;" style="edgeLabel;html=1;align=center;verticalAlign=middle;resizable=0;points=[];" parent="WIyWlLk6GJQsqaUBKTNV-1" vertex="1" connectable="0">
          <mxGeometry x="4270.97" y="430" as="geometry" />
        </mxCell>
        <mxCell id="86CAOPFkjnfypf_7lXeF-325" value="&lt;font color=&quot;#9999ff&quot; style=&quot;font-size: 22px;&quot;&gt;RegRead Controls&lt;/font&gt;" style="edgeLabel;html=1;align=center;verticalAlign=middle;resizable=0;points=[];" parent="WIyWlLk6GJQsqaUBKTNV-1" vertex="1" connectable="0">
          <mxGeometry x="3750" y="-150" as="geometry">
            <mxPoint x="-40" as="offset" />
          </mxGeometry>
        </mxCell>
        <mxCell id="86CAOPFkjnfypf_7lXeF-326" value="&lt;font color=&quot;#9999ff&quot; style=&quot;font-size: 22px;&quot;&gt;RegWrite Controls&lt;/font&gt;" style="edgeLabel;html=1;align=center;verticalAlign=middle;resizable=0;points=[];" parent="WIyWlLk6GJQsqaUBKTNV-1" vertex="1" connectable="0">
          <mxGeometry x="3510" y="950" as="geometry" />
        </mxCell>
        <mxCell id="86CAOPFkjnfypf_7lXeF-327" value="&lt;font color=&quot;#9999ff&quot; style=&quot;font-size: 22px;&quot;&gt;Rdst&lt;/font&gt;" style="edgeLabel;html=1;align=center;verticalAlign=middle;resizable=0;points=[];" parent="WIyWlLk6GJQsqaUBKTNV-1" vertex="1" connectable="0">
          <mxGeometry x="3050" y="270" as="geometry">
            <mxPoint x="-36" y="-16" as="offset" />
          </mxGeometry>
        </mxCell>
        <mxCell id="86CAOPFkjnfypf_7lXeF-328" value="&lt;font color=&quot;#9999ff&quot; style=&quot;font-size: 22px;&quot;&gt;Control Unit inputs&lt;/font&gt;" style="edgeLabel;html=1;align=center;verticalAlign=middle;resizable=0;points=[];" parent="WIyWlLk6GJQsqaUBKTNV-1" vertex="1" connectable="0">
          <mxGeometry x="3230" y="-750" as="geometry">
            <mxPoint x="14" y="36" as="offset" />
          </mxGeometry>
        </mxCell>
        <mxCell id="86CAOPFkjnfypf_7lXeF-329" value="&lt;font color=&quot;#9999ff&quot; style=&quot;font-size: 22px;&quot;&gt;Control Unit Outputs&lt;/font&gt;" style="edgeLabel;html=1;align=center;verticalAlign=middle;resizable=0;points=[];" parent="WIyWlLk6GJQsqaUBKTNV-1" vertex="1" connectable="0">
          <mxGeometry x="4110" y="-900" as="geometry">
            <mxPoint x="14" y="36" as="offset" />
          </mxGeometry>
        </mxCell>
        <mxCell id="86CAOPFkjnfypf_7lXeF-330" value="&lt;font color=&quot;#9999ff&quot; style=&quot;font-size: 22px;&quot;&gt;Control Unit inputs&lt;/font&gt;" style="edgeLabel;html=1;align=center;verticalAlign=middle;resizable=0;points=[];" parent="WIyWlLk6GJQsqaUBKTNV-1" vertex="1" connectable="0">
          <mxGeometry x="3480" y="-1270" as="geometry">
            <mxPoint x="14" y="36" as="offset" />
          </mxGeometry>
        </mxCell>
        <mxCell id="86CAOPFkjnfypf_7lXeF-331" value="&lt;font color=&quot;#9999ff&quot; style=&quot;font-size: 22px;&quot;&gt;NOP = 0&lt;/font&gt;" style="edgeLabel;html=1;align=center;verticalAlign=middle;resizable=0;points=[];" parent="WIyWlLk6GJQsqaUBKTNV-1" vertex="1" connectable="0">
          <mxGeometry x="4010" y="-340.00000000000006" as="geometry">
            <mxPoint x="27" y="-3" as="offset" />
          </mxGeometry>
        </mxCell>
        <mxCell id="86CAOPFkjnfypf_7lXeF-332" value="&lt;font color=&quot;#9999ff&quot; style=&quot;font-size: 22px;&quot;&gt;NOP = 0&lt;/font&gt;" style="edgeLabel;html=1;align=center;verticalAlign=middle;resizable=0;points=[];" parent="WIyWlLk6GJQsqaUBKTNV-1" vertex="1" connectable="0">
          <mxGeometry x="4930" y="-700" as="geometry">
            <mxPoint x="27" y="-3" as="offset" />
          </mxGeometry>
        </mxCell>
        <mxCell id="86CAOPFkjnfypf_7lXeF-333" value="&lt;font color=&quot;#9999ff&quot; style=&quot;font-size: 22px;&quot;&gt;NOP = 0&lt;/font&gt;" style="edgeLabel;html=1;align=center;verticalAlign=middle;resizable=0;points=[];" parent="WIyWlLk6GJQsqaUBKTNV-1" vertex="1" connectable="0">
          <mxGeometry x="5430" y="-700" as="geometry">
            <mxPoint x="27" y="-3" as="offset" />
          </mxGeometry>
        </mxCell>
        <mxCell id="86CAOPFkjnfypf_7lXeF-334" value="&lt;font color=&quot;#9999ff&quot; style=&quot;font-size: 22px;&quot;&gt;EX Flush&lt;/font&gt;" style="edgeLabel;html=1;align=center;verticalAlign=middle;resizable=0;points=[];" parent="WIyWlLk6GJQsqaUBKTNV-1" vertex="1" connectable="0">
          <mxGeometry x="5210" y="-890" as="geometry">
            <mxPoint x="27" y="-3" as="offset" />
          </mxGeometry>
        </mxCell>
        <mxCell id="86CAOPFkjnfypf_7lXeF-336" value="&lt;font color=&quot;#9999ff&quot; style=&quot;font-size: 22px;&quot;&gt;ID Flush&lt;/font&gt;" style="edgeLabel;html=1;align=center;verticalAlign=middle;resizable=0;points=[];" parent="WIyWlLk6GJQsqaUBKTNV-1" vertex="1" connectable="0">
          <mxGeometry x="4340" y="-1810" as="geometry">
            <mxPoint x="27" y="-3" as="offset" />
          </mxGeometry>
        </mxCell>
        <mxCell id="86CAOPFkjnfypf_7lXeF-337" value="&lt;font color=&quot;#9999ff&quot; style=&quot;font-size: 22px;&quot;&gt;WB&lt;/font&gt;" style="edgeLabel;html=1;align=center;verticalAlign=middle;resizable=0;points=[];" parent="WIyWlLk6GJQsqaUBKTNV-1" vertex="1" connectable="0">
          <mxGeometry x="4585.95" y="-270" as="geometry">
            <mxPoint x="27" y="-3" as="offset" />
          </mxGeometry>
        </mxCell>
        <mxCell id="86CAOPFkjnfypf_7lXeF-338" value="&lt;font color=&quot;#9999ff&quot; style=&quot;font-size: 22px;&quot;&gt;M&lt;/font&gt;" style="edgeLabel;html=1;align=center;verticalAlign=middle;resizable=0;points=[];" parent="WIyWlLk6GJQsqaUBKTNV-1" vertex="1" connectable="0">
          <mxGeometry x="4585.95" y="-229.99999999999997" as="geometry">
            <mxPoint x="27" y="-3" as="offset" />
          </mxGeometry>
        </mxCell>
        <mxCell id="86CAOPFkjnfypf_7lXeF-339" value="&lt;font color=&quot;#9999ff&quot; style=&quot;font-size: 22px;&quot;&gt;EX&lt;/font&gt;" style="edgeLabel;html=1;align=center;verticalAlign=middle;resizable=0;points=[];" parent="WIyWlLk6GJQsqaUBKTNV-1" vertex="1" connectable="0">
          <mxGeometry x="4600" y="-140" as="geometry">
            <mxPoint x="27" y="-3" as="offset" />
          </mxGeometry>
        </mxCell>
        <mxCell id="86CAOPFkjnfypf_7lXeF-340" value="&lt;font color=&quot;#9999ff&quot; style=&quot;font-size: 22px;&quot;&gt;WB&lt;/font&gt;" style="edgeLabel;html=1;align=center;verticalAlign=middle;resizable=0;points=[];" parent="WIyWlLk6GJQsqaUBKTNV-1" vertex="1" connectable="0">
          <mxGeometry x="5965.04" y="-220" as="geometry">
            <mxPoint x="27" y="-3" as="offset" />
          </mxGeometry>
        </mxCell>
        <mxCell id="86CAOPFkjnfypf_7lXeF-341" value="&lt;font color=&quot;#9999ff&quot; style=&quot;font-size: 22px;&quot;&gt;M&lt;/font&gt;" style="edgeLabel;html=1;align=center;verticalAlign=middle;resizable=0;points=[];" parent="WIyWlLk6GJQsqaUBKTNV-1" vertex="1" connectable="0">
          <mxGeometry x="5965.04" y="-159.99999999999997" as="geometry">
            <mxPoint x="27" y="-3" as="offset" />
          </mxGeometry>
        </mxCell>
        <mxCell id="86CAOPFkjnfypf_7lXeF-342" value="&lt;font color=&quot;#9999ff&quot; style=&quot;font-size: 22px;&quot;&gt;Operand 2&lt;/font&gt;" style="edgeLabel;html=1;align=center;verticalAlign=middle;resizable=0;points=[];" parent="WIyWlLk6GJQsqaUBKTNV-1" vertex="1" connectable="0">
          <mxGeometry x="5410" y="342.53000000000003" as="geometry">
            <mxPoint x="27" y="-3" as="offset" />
          </mxGeometry>
        </mxCell>
        <mxCell id="86CAOPFkjnfypf_7lXeF-343" value="&lt;font color=&quot;#9999ff&quot; style=&quot;font-size: 22px;&quot;&gt;Operand 1&lt;/font&gt;" style="edgeLabel;html=1;align=center;verticalAlign=middle;resizable=0;points=[];" parent="WIyWlLk6GJQsqaUBKTNV-1" vertex="1" connectable="0">
          <mxGeometry x="5400" y="50.00000000000004" as="geometry">
            <mxPoint x="27" y="-3" as="offset" />
          </mxGeometry>
        </mxCell>
        <mxCell id="86CAOPFkjnfypf_7lXeF-344" value="&lt;font color=&quot;#9999ff&quot;&gt;&lt;span style=&quot;font-size: 22px;&quot;&gt;Read data 1&lt;/span&gt;&lt;/font&gt;" style="edgeLabel;html=1;align=center;verticalAlign=middle;resizable=0;points=[];" parent="WIyWlLk6GJQsqaUBKTNV-1" vertex="1" connectable="0">
          <mxGeometry x="6000" y="7.010000000000028" as="geometry">
            <mxPoint x="27" y="-3" as="offset" />
          </mxGeometry>
        </mxCell>
        <mxCell id="86CAOPFkjnfypf_7lXeF-345" value="&lt;font color=&quot;#9999ff&quot;&gt;&lt;span style=&quot;font-size: 22px;&quot;&gt;Read data 2&lt;/span&gt;&lt;/font&gt;" style="edgeLabel;html=1;align=center;verticalAlign=middle;resizable=0;points=[];" parent="WIyWlLk6GJQsqaUBKTNV-1" vertex="1" connectable="0">
          <mxGeometry x="6000" y="58.060000000000024" as="geometry">
            <mxPoint x="27" y="-3" as="offset" />
          </mxGeometry>
        </mxCell>
        <mxCell id="86CAOPFkjnfypf_7lXeF-346" value="&lt;font color=&quot;#9999ff&quot;&gt;&lt;span style=&quot;font-size: 22px;&quot;&gt;ALU Out&lt;/span&gt;&lt;/font&gt;" style="edgeLabel;html=1;align=center;verticalAlign=middle;resizable=0;points=[];" parent="WIyWlLk6GJQsqaUBKTNV-1" vertex="1" connectable="0">
          <mxGeometry x="6000" y="255.00000000000003" as="geometry">
            <mxPoint x="27" y="-3" as="offset" />
          </mxGeometry>
        </mxCell>
        <mxCell id="86CAOPFkjnfypf_7lXeF-347" value="&lt;font color=&quot;#9999ff&quot;&gt;&lt;span style=&quot;font-size: 22px;&quot;&gt;Read add 1&lt;/span&gt;&lt;/font&gt;" style="edgeLabel;html=1;align=center;verticalAlign=middle;resizable=0;points=[];" parent="WIyWlLk6GJQsqaUBKTNV-1" vertex="1" connectable="0">
          <mxGeometry x="6000" y="480" as="geometry">
            <mxPoint x="27" y="-3" as="offset" />
          </mxGeometry>
        </mxCell>
        <mxCell id="86CAOPFkjnfypf_7lXeF-348" value="&lt;font color=&quot;#9999ff&quot;&gt;&lt;span style=&quot;font-size: 22px;&quot;&gt;Read add 2&lt;/span&gt;&lt;/font&gt;" style="edgeLabel;html=1;align=center;verticalAlign=middle;resizable=0;points=[];" parent="WIyWlLk6GJQsqaUBKTNV-1" vertex="1" connectable="0">
          <mxGeometry x="6000" y="520" as="geometry">
            <mxPoint x="27" y="-3" as="offset" />
          </mxGeometry>
        </mxCell>
        <mxCell id="86CAOPFkjnfypf_7lXeF-349" value="&lt;font color=&quot;#9999ff&quot;&gt;&lt;span style=&quot;font-size: 22px;&quot;&gt;PC + 1&lt;/span&gt;&lt;/font&gt;" style="edgeLabel;html=1;align=center;verticalAlign=middle;resizable=0;points=[];" parent="WIyWlLk6GJQsqaUBKTNV-1" vertex="1" connectable="0">
          <mxGeometry x="5990" y="550" as="geometry">
            <mxPoint x="27" y="-3" as="offset" />
          </mxGeometry>
        </mxCell>
        <mxCell id="86CAOPFkjnfypf_7lXeF-351" value="&lt;font color=&quot;#9999ff&quot;&gt;&lt;span style=&quot;font-size: 22px;&quot;&gt;Rdst&lt;/span&gt;&lt;/font&gt;" style="edgeLabel;html=1;align=center;verticalAlign=middle;resizable=0;points=[];" parent="WIyWlLk6GJQsqaUBKTNV-1" vertex="1" connectable="0">
          <mxGeometry x="5970" y="630" as="geometry">
            <mxPoint x="27" y="-3" as="offset" />
          </mxGeometry>
        </mxCell>
        <mxCell id="86CAOPFkjnfypf_7lXeF-353" value="&lt;font color=&quot;#9999ff&quot;&gt;&lt;span style=&quot;font-size: 22px;&quot;&gt;Z&lt;/span&gt;&lt;/font&gt;" style="edgeLabel;html=1;align=center;verticalAlign=middle;resizable=0;points=[];" parent="WIyWlLk6GJQsqaUBKTNV-1" vertex="1" connectable="0">
          <mxGeometry x="5352.11" y="1060" as="geometry">
            <mxPoint x="27" y="-3" as="offset" />
          </mxGeometry>
        </mxCell>
        <mxCell id="86CAOPFkjnfypf_7lXeF-354" value="&lt;font color=&quot;#9999ff&quot;&gt;&lt;span style=&quot;font-size: 22px;&quot;&gt;C&lt;/span&gt;&lt;/font&gt;" style="edgeLabel;html=1;align=center;verticalAlign=middle;resizable=0;points=[];" parent="WIyWlLk6GJQsqaUBKTNV-1" vertex="1" connectable="0">
          <mxGeometry x="5480" y="1060" as="geometry">
            <mxPoint x="27" y="-3" as="offset" />
          </mxGeometry>
        </mxCell>
        <mxCell id="86CAOPFkjnfypf_7lXeF-355" value="&lt;font color=&quot;#9999ff&quot;&gt;&lt;span style=&quot;font-size: 22px;&quot;&gt;O&lt;/span&gt;&lt;/font&gt;" style="edgeLabel;html=1;align=center;verticalAlign=middle;resizable=0;points=[];" parent="WIyWlLk6GJQsqaUBKTNV-1" vertex="1" connectable="0">
          <mxGeometry x="5556.42" y="1060" as="geometry">
            <mxPoint x="27" y="-3" as="offset" />
          </mxGeometry>
        </mxCell>
        <mxCell id="86CAOPFkjnfypf_7lXeF-356" value="&lt;font color=&quot;#9999ff&quot;&gt;&lt;span style=&quot;font-size: 22px;&quot;&gt;N&lt;/span&gt;&lt;/font&gt;" style="edgeLabel;html=1;align=center;verticalAlign=middle;resizable=0;points=[];" parent="WIyWlLk6GJQsqaUBKTNV-1" vertex="1" connectable="0">
          <mxGeometry x="5450" y="1080" as="geometry">
            <mxPoint x="1" y="-19" as="offset" />
          </mxGeometry>
        </mxCell>
        <mxCell id="86CAOPFkjnfypf_7lXeF-359" value="&lt;font color=&quot;#9999ff&quot; style=&quot;font-size: 22px;&quot;&gt;Data 1, Data 2, Memory WB, ask tarek&amp;nbsp;&lt;/font&gt;" style="edgeLabel;html=1;align=center;verticalAlign=middle;resizable=0;points=[];" parent="WIyWlLk6GJQsqaUBKTNV-1" vertex="1" connectable="0">
          <mxGeometry x="8276" y="-173.99999999999994" as="geometry">
            <mxPoint x="-53" y="7" as="offset" />
          </mxGeometry>
        </mxCell>
        <mxCell id="86CAOPFkjnfypf_7lXeF-360" value="&lt;font color=&quot;#9999ff&quot; style=&quot;font-size: 22px;&quot;&gt;Data 2, Data 1, Memory WB,&amp;nbsp;&lt;/font&gt;" style="edgeLabel;html=1;align=center;verticalAlign=middle;resizable=0;points=[];" parent="WIyWlLk6GJQsqaUBKTNV-1" vertex="1" connectable="0">
          <mxGeometry x="8348.66" y="204.35" as="geometry">
            <mxPoint x="-53" y="7" as="offset" />
          </mxGeometry>
        </mxCell>
        <mxCell id="86CAOPFkjnfypf_7lXeF-361" value="&lt;font color=&quot;#9999ff&quot; style=&quot;font-size: 22px;&quot;&gt;read address 1 and destination address&lt;/font&gt;" style="edgeLabel;html=1;align=center;verticalAlign=middle;resizable=0;points=[];" parent="WIyWlLk6GJQsqaUBKTNV-1" vertex="1" connectable="0">
          <mxGeometry x="8290" y="660" as="geometry">
            <mxPoint x="-53" y="7" as="offset" />
          </mxGeometry>
        </mxCell>
        <mxCell id="86CAOPFkjnfypf_7lXeF-362" value="&lt;font color=&quot;#9999ff&quot; style=&quot;font-size: 22px;&quot;&gt;read address 2&lt;/font&gt;" style="edgeLabel;html=1;align=center;verticalAlign=middle;resizable=0;points=[];" parent="WIyWlLk6GJQsqaUBKTNV-1" vertex="1" connectable="0">
          <mxGeometry x="8230" y="500" as="geometry">
            <mxPoint x="-53" y="7" as="offset" />
          </mxGeometry>
        </mxCell>
        <mxCell id="86CAOPFkjnfypf_7lXeF-363" value="&lt;font color=&quot;#9999ff&quot;&gt;&lt;span style=&quot;font-size: 22px;&quot;&gt;MemRead&lt;/span&gt;&lt;/font&gt;" style="edgeLabel;html=1;align=center;verticalAlign=middle;resizable=0;points=[];" parent="WIyWlLk6GJQsqaUBKTNV-1" vertex="1" connectable="0">
          <mxGeometry x="6790" as="geometry">
            <mxPoint x="-53" y="7" as="offset" />
          </mxGeometry>
        </mxCell>
        <mxCell id="86CAOPFkjnfypf_7lXeF-364" value="&lt;font color=&quot;#9999ff&quot;&gt;&lt;span style=&quot;font-size: 22px;&quot;&gt;MemWrite&lt;/span&gt;&lt;/font&gt;" style="edgeLabel;html=1;align=center;verticalAlign=middle;resizable=0;points=[];" parent="WIyWlLk6GJQsqaUBKTNV-1" vertex="1" connectable="0">
          <mxGeometry x="6790" y="-40" as="geometry">
            <mxPoint x="-53" y="7" as="offset" />
          </mxGeometry>
        </mxCell>
        <mxCell id="O9Fp_XUwmrDLbSEX-0T6-0" style="edgeStyle=orthogonalEdgeStyle;rounded=0;orthogonalLoop=1;jettySize=auto;html=1;strokeColor=#6666FF;strokeWidth=5;fillColor=#CC0000;gradientColor=none;flowAnimation=0;exitX=0.049;exitY=0.004;exitDx=0;exitDy=0;fontColor=#6666FF;exitPerimeter=0;" parent="WIyWlLk6GJQsqaUBKTNV-1" source="86CAOPFkjnfypf_7lXeF-12" edge="1">
          <mxGeometry relative="1" as="geometry">
            <mxPoint x="8740" y="-220" as="sourcePoint" />
            <mxPoint x="8440" y="-92" as="targetPoint" />
            <Array as="points">
              <mxPoint x="8440" y="-258" />
              <mxPoint x="8440" y="-92" />
            </Array>
          </mxGeometry>
        </mxCell>
        <mxCell id="O9Fp_XUwmrDLbSEX-0T6-1" style="edgeStyle=orthogonalEdgeStyle;rounded=0;orthogonalLoop=1;jettySize=auto;html=1;entryX=0;entryY=0.5;entryDx=0;entryDy=0;strokeColor=#6666FF;strokeWidth=5;fillColor=#CC0000;gradientColor=none;flowAnimation=0;fontColor=#6666FF;" parent="WIyWlLk6GJQsqaUBKTNV-1" target="86CAOPFkjnfypf_7lXeF-149" edge="1">
          <mxGeometry relative="1" as="geometry">
            <mxPoint x="8430" y="-260" as="sourcePoint" />
            <mxPoint x="9149.439655172413" y="-320" as="targetPoint" />
            <Array as="points">
              <mxPoint x="8660" y="-259" />
              <mxPoint x="8660" y="170" />
              <mxPoint x="8255" y="170" />
            </Array>
          </mxGeometry>
        </mxCell>
        <mxCell id="O9Fp_XUwmrDLbSEX-0T6-3" style="edgeStyle=orthogonalEdgeStyle;rounded=0;orthogonalLoop=1;jettySize=auto;html=1;strokeColor=#6666FF;strokeWidth=5;fillColor=#CC0000;gradientColor=none;flowAnimation=0;fontColor=#6666FF;entryX=0;entryY=0.25;entryDx=0;entryDy=0;" parent="WIyWlLk6GJQsqaUBKTNV-1" target="86CAOPFkjnfypf_7lXeF-249" edge="1">
          <mxGeometry relative="1" as="geometry">
            <mxPoint x="8660" y="170" as="sourcePoint" />
            <mxPoint x="8780" y="530" as="targetPoint" />
            <Array as="points">
              <mxPoint x="8640" y="171" />
              <mxPoint x="8640" y="590" />
              <mxPoint x="8296" y="590" />
            </Array>
          </mxGeometry>
        </mxCell>
        <mxCell id="ZELZnbqk9HWkxNMxSVLF-0" style="edgeStyle=orthogonalEdgeStyle;rounded=0;orthogonalLoop=1;jettySize=auto;html=1;entryX=0.65;entryY=0.015;entryDx=0;entryDy=0;strokeColor=#6666FF;strokeWidth=5;fillColor=#CC0000;gradientColor=none;flowAnimation=0;exitX=1.011;exitY=0.68;exitDx=0;exitDy=0;fontColor=#6666FF;exitPerimeter=0;entryPerimeter=0;" parent="WIyWlLk6GJQsqaUBKTNV-1" source="86CAOPFkjnfypf_7lXeF-58" target="86CAOPFkjnfypf_7lXeF-102" edge="1">
          <mxGeometry relative="1" as="geometry">
            <mxPoint x="1630.5562068965517" y="946.003978494624" as="sourcePoint" />
            <mxPoint x="1919.9958620689656" y="946.003978494624" as="targetPoint" />
            <Array as="points">
              <mxPoint x="3640" y="-490" />
              <mxPoint x="3230" y="-490" />
              <mxPoint x="3230" y="321" />
              <mxPoint x="3374" y="321" />
            </Array>
          </mxGeometry>
        </mxCell>
        <mxCell id="ZELZnbqk9HWkxNMxSVLF-1" value="&lt;font color=&quot;#9999ff&quot;&gt;&lt;span style=&quot;font-size: 22px;&quot;&gt;data 1&lt;/span&gt;&lt;/font&gt;" style="edgeLabel;html=1;align=center;verticalAlign=middle;resizable=0;points=[];" parent="WIyWlLk6GJQsqaUBKTNV-1" vertex="1" connectable="0">
          <mxGeometry x="5000" y="-102.39999999999998" as="geometry">
            <mxPoint x="61" y="36" as="offset" />
          </mxGeometry>
        </mxCell>
        <mxCell id="ZELZnbqk9HWkxNMxSVLF-2" value="&lt;font color=&quot;#9999ff&quot;&gt;&lt;span style=&quot;font-size: 22px;&quot;&gt;mem to alu&lt;/span&gt;&lt;/font&gt;" style="edgeLabel;html=1;align=center;verticalAlign=middle;resizable=0;points=[];" parent="WIyWlLk6GJQsqaUBKTNV-1" vertex="1" connectable="0">
          <mxGeometry x="4930" y="280" as="geometry">
            <mxPoint x="61" y="36" as="offset" />
          </mxGeometry>
        </mxCell>
        <mxCell id="ZELZnbqk9HWkxNMxSVLF-3" value="&lt;font color=&quot;#9999ff&quot;&gt;&lt;span style=&quot;font-size: 22px;&quot;&gt;alu to alu&lt;/span&gt;&lt;/font&gt;" style="edgeLabel;html=1;align=center;verticalAlign=middle;resizable=0;points=[];" parent="WIyWlLk6GJQsqaUBKTNV-1" vertex="1" connectable="0">
          <mxGeometry x="4920" y="342.53" as="geometry">
            <mxPoint x="61" y="36" as="offset" />
          </mxGeometry>
        </mxCell>
        <mxCell id="ZELZnbqk9HWkxNMxSVLF-4" value="&lt;font color=&quot;#9999ff&quot;&gt;&lt;span style=&quot;font-size: 22px;&quot;&gt;data 2&lt;/span&gt;&lt;/font&gt;" style="edgeLabel;html=1;align=center;verticalAlign=middle;resizable=0;points=[];" parent="WIyWlLk6GJQsqaUBKTNV-1" vertex="1" connectable="0">
          <mxGeometry x="4900" y="219.35" as="geometry">
            <mxPoint x="61" y="36" as="offset" />
          </mxGeometry>
        </mxCell>
        <mxCell id="ZELZnbqk9HWkxNMxSVLF-8" value="" style="endArrow=classic;startArrow=classic;html=1;rounded=0;strokeWidth=5;strokeColor=#CC6600;exitX=-0.026;exitY=0.841;exitDx=0;exitDy=0;exitPerimeter=0;entryX=0.998;entryY=0.9;entryDx=0;entryDy=0;entryPerimeter=0;" parent="WIyWlLk6GJQsqaUBKTNV-1" source="86CAOPFkjnfypf_7lXeF-286" target="86CAOPFkjnfypf_7lXeF-10" edge="1">
          <mxGeometry width="50" height="50" relative="1" as="geometry">
            <mxPoint x="5370" y="640" as="sourcePoint" />
            <mxPoint x="5420" y="590" as="targetPoint" />
          </mxGeometry>
        </mxCell>
        <mxCell id="ZELZnbqk9HWkxNMxSVLF-10" value="" style="endArrow=classic;startArrow=classic;html=1;rounded=0;strokeWidth=5;strokeColor=#CC6600;exitX=0.001;exitY=0.577;exitDx=0;exitDy=0;exitPerimeter=0;entryX=0.99;entryY=0.631;entryDx=0;entryDy=0;entryPerimeter=0;" parent="WIyWlLk6GJQsqaUBKTNV-1" source="86CAOPFkjnfypf_7lXeF-286" target="86CAOPFkjnfypf_7lXeF-10" edge="1">
          <mxGeometry width="50" height="50" relative="1" as="geometry">
            <mxPoint x="5440" y="534.76" as="sourcePoint" />
            <mxPoint x="5490" y="484.76" as="targetPoint" />
          </mxGeometry>
        </mxCell>
        <mxCell id="ZELZnbqk9HWkxNMxSVLF-11" value="" style="endArrow=classic;startArrow=classic;html=1;rounded=0;strokeWidth=5;strokeColor=#CC6600;entryX=0.982;entryY=0.403;entryDx=0;entryDy=0;entryPerimeter=0;exitX=-0.062;exitY=0.325;exitDx=0;exitDy=0;exitPerimeter=0;" parent="WIyWlLk6GJQsqaUBKTNV-1" source="86CAOPFkjnfypf_7lXeF-286" target="86CAOPFkjnfypf_7lXeF-10" edge="1">
          <mxGeometry width="50" height="50" relative="1" as="geometry">
            <mxPoint x="5506.42" y="630" as="sourcePoint" />
            <mxPoint x="5556.42" y="580" as="targetPoint" />
          </mxGeometry>
        </mxCell>
        <mxCell id="ZELZnbqk9HWkxNMxSVLF-12" value="" style="endArrow=classic;startArrow=classic;html=1;rounded=0;strokeWidth=5;strokeColor=#CC6600;entryX=0.962;entryY=0.162;entryDx=0;entryDy=0;entryPerimeter=0;exitX=0.019;exitY=0.078;exitDx=0;exitDy=0;exitPerimeter=0;" parent="WIyWlLk6GJQsqaUBKTNV-1" source="86CAOPFkjnfypf_7lXeF-286" target="86CAOPFkjnfypf_7lXeF-10" edge="1">
          <mxGeometry width="50" height="50" relative="1" as="geometry">
            <mxPoint x="5500" y="700.85" as="sourcePoint" />
            <mxPoint x="5550" y="650.85" as="targetPoint" />
          </mxGeometry>
        </mxCell>
        <mxCell id="e3UTlmEIuYZlEJ3HEwNQ-0" value="&lt;font color=&quot;#b266ff&quot;&gt;&lt;span style=&quot;font-size: 16px;&quot;&gt;&lt;b&gt;F/D Register&lt;/b&gt;&lt;/span&gt;&lt;/font&gt;" style="rounded=0;whiteSpace=wrap;html=1;direction=south;fillColor=#cce5ff;strokeColor=#36393d;shadow=0;glass=0;points=[[0,0,0,0,0],[0,0.25,0,0,0],[0,0.5,0,0,0],[0,0.75,0,0,0],[0,1,0,0,0],[0.25,0,0,0,0],[0.25,1,0,0,0],[0.5,0,0,0,0],[0.5,1,0,0,0],[0.75,0,0,0,0],[0.75,1,0,0,0],[1,0,0,0,0],[1,0.25,0,0,0],[1,0.5,0,0,0],[1,0.75,0,0,0],[1,1,0,0,0]];container=0;" parent="WIyWlLk6GJQsqaUBKTNV-1" vertex="1">
          <mxGeometry x="2960" y="870" width="136.21" height="146.33" as="geometry" />
        </mxCell>
        <mxCell id="s8gk1i9HlX99VXbqpKua-7" value="&lt;font color=&quot;#9999ff&quot;&gt;&lt;span style=&quot;font-size: 22px;&quot;&gt;free&lt;/span&gt;&lt;/font&gt;" style="edgeLabel;html=1;align=center;verticalAlign=middle;resizable=0;points=[];" parent="WIyWlLk6GJQsqaUBKTNV-1" vertex="1" connectable="0">
          <mxGeometry x="6780" y="50" as="geometry">
            <mxPoint x="-53" y="7" as="offset" />
          </mxGeometry>
        </mxCell>
        <mxCell id="s8gk1i9HlX99VXbqpKua-8" value="&lt;font color=&quot;#9999ff&quot;&gt;&lt;span style=&quot;font-size: 22px;&quot;&gt;protect&lt;/span&gt;&lt;/font&gt;" style="edgeLabel;html=1;align=center;verticalAlign=middle;resizable=0;points=[];" parent="WIyWlLk6GJQsqaUBKTNV-1" vertex="1" connectable="0">
          <mxGeometry x="6780" y="94.53" as="geometry">
            <mxPoint x="-53" y="7" as="offset" />
          </mxGeometry>
        </mxCell>
        <mxCell id="Hs6rmwznbdLAOPUni4K7-0" value="&lt;b&gt;&lt;font color=&quot;#b266ff&quot; style=&quot;font-size: 18px;&quot;&gt;MUX&lt;/font&gt;&lt;/b&gt;" style="shape=trapezoid;perimeter=trapezoidPerimeter;whiteSpace=wrap;html=1;fixedSize=1;direction=south;fillColor=#ffcccc;strokeColor=#36393d;container=0;" vertex="1" parent="WIyWlLk6GJQsqaUBKTNV-1">
          <mxGeometry x="6524.3099999999995" y="820" width="85.12931034482759" height="160.46594982078855" as="geometry" />
        </mxCell>
        <mxCell id="Hs6rmwznbdLAOPUni4K7-1" value="&lt;b&gt;&lt;font color=&quot;#b266ff&quot; style=&quot;font-size: 18px;&quot;&gt;MUX&lt;/font&gt;&lt;/b&gt;" style="shape=trapezoid;perimeter=trapezoidPerimeter;whiteSpace=wrap;html=1;fixedSize=1;direction=south;fillColor=#ffcccc;strokeColor=#36393d;container=0;" vertex="1" parent="WIyWlLk6GJQsqaUBKTNV-1">
          <mxGeometry x="6460" y="160.17999999999995" width="85.12931034482759" height="160.46594982078855" as="geometry" />
        </mxCell>
        <mxCell id="Hs6rmwznbdLAOPUni4K7-2" value="&lt;font size=&quot;1&quot; color=&quot;#b266ff&quot;&gt;&lt;b style=&quot;font-size: 20px;&quot;&gt;Stack Pointer&lt;/b&gt;&lt;/font&gt;" style="rounded=1;whiteSpace=wrap;html=1;direction=south;fillColor=#f5f5f5;strokeColor=#666666;fontColor=#333333;shadow=0;glass=0;container=0;" vertex="1" parent="WIyWlLk6GJQsqaUBKTNV-1">
          <mxGeometry x="6790" y="815.9599999999999" width="221.12" height="168.54" as="geometry" />
        </mxCell>
        <mxCell id="Hs6rmwznbdLAOPUni4K7-4" style="edgeStyle=orthogonalEdgeStyle;rounded=0;orthogonalLoop=1;jettySize=auto;html=1;strokeColor=#CC0000;strokeWidth=5;fillColor=#CC0000;gradientColor=none;flowAnimation=0;exitX=0.5;exitY=0;exitDx=0;exitDy=0;fontColor=#6666FF;entryX=0.578;entryY=0.978;entryDx=0;entryDy=0;entryPerimeter=0;" edge="1" parent="WIyWlLk6GJQsqaUBKTNV-1" source="Hs6rmwznbdLAOPUni4K7-2" target="Hs6rmwznbdLAOPUni4K7-1">
          <mxGeometry relative="1" as="geometry">
            <mxPoint x="6920" y="860" as="sourcePoint" />
            <mxPoint x="6510" y="410" as="targetPoint" />
            <Array as="points">
              <mxPoint x="7040" y="900" />
              <mxPoint x="7040" y="610" />
              <mxPoint x="6270" y="610" />
              <mxPoint x="6270" y="253" />
            </Array>
          </mxGeometry>
        </mxCell>
        <mxCell id="Hs6rmwznbdLAOPUni4K7-5" style="edgeStyle=orthogonalEdgeStyle;rounded=0;orthogonalLoop=1;jettySize=auto;html=1;entryX=0.5;entryY=1;entryDx=0;entryDy=0;strokeColor=#CC0000;strokeWidth=5;fillColor=#CC0000;gradientColor=none;flowAnimation=0;fontColor=#6666FF;" edge="1" parent="WIyWlLk6GJQsqaUBKTNV-1" target="Hs6rmwznbdLAOPUni4K7-0">
          <mxGeometry relative="1" as="geometry">
            <mxPoint x="6210" y="900" as="sourcePoint" />
            <mxPoint x="6390.689655172414" y="899.4" as="targetPoint" />
          </mxGeometry>
        </mxCell>
        <mxCell id="Hs6rmwznbdLAOPUni4K7-6" style="edgeStyle=orthogonalEdgeStyle;rounded=0;orthogonalLoop=1;jettySize=auto;html=1;entryX=0.25;entryY=1;entryDx=0;entryDy=0;strokeColor=#CC0000;strokeWidth=5;fillColor=#CC0000;gradientColor=none;flowAnimation=0;fontColor=#6666FF;" edge="1" parent="WIyWlLk6GJQsqaUBKTNV-1" target="Hs6rmwznbdLAOPUni4K7-0">
          <mxGeometry relative="1" as="geometry">
            <mxPoint x="6310" y="860" as="sourcePoint" />
            <mxPoint x="6390.689655172414" y="898.8" as="targetPoint" />
            <Array as="points">
              <mxPoint x="6310" y="860" />
            </Array>
          </mxGeometry>
        </mxCell>
        <mxCell id="Hs6rmwznbdLAOPUni4K7-7" style="edgeStyle=orthogonalEdgeStyle;rounded=0;orthogonalLoop=1;jettySize=auto;html=1;entryX=0.679;entryY=1.021;entryDx=0;entryDy=0;strokeColor=#CC0000;strokeWidth=5;fillColor=#CC0000;gradientColor=none;flowAnimation=0;exitX=0.5;exitY=0;exitDx=0;exitDy=0;fontColor=#6666FF;entryPerimeter=0;" edge="1" parent="WIyWlLk6GJQsqaUBKTNV-1" target="Hs6rmwznbdLAOPUni4K7-0">
          <mxGeometry relative="1" as="geometry">
            <mxPoint x="6210" y="930" as="sourcePoint" />
            <mxPoint x="6499.439655172414" y="930" as="targetPoint" />
          </mxGeometry>
        </mxCell>
        <mxCell id="Hs6rmwznbdLAOPUni4K7-8" style="edgeStyle=orthogonalEdgeStyle;rounded=0;orthogonalLoop=1;jettySize=auto;html=1;entryX=0.814;entryY=1.012;entryDx=0;entryDy=0;strokeColor=#CC0000;strokeWidth=5;fillColor=#CC0000;gradientColor=none;flowAnimation=0;exitX=0.5;exitY=0;exitDx=0;exitDy=0;fontColor=#6666FF;entryPerimeter=0;" edge="1" parent="WIyWlLk6GJQsqaUBKTNV-1" target="Hs6rmwznbdLAOPUni4K7-0">
          <mxGeometry relative="1" as="geometry">
            <mxPoint x="6210" y="950" as="sourcePoint" />
            <mxPoint x="6499.439655172414" y="950" as="targetPoint" />
          </mxGeometry>
        </mxCell>
        <mxCell id="Hs6rmwznbdLAOPUni4K7-10" value="&lt;font color=&quot;#9999ff&quot;&gt;&lt;span style=&quot;font-size: 22px;&quot;&gt;SP+2&lt;/span&gt;&lt;/font&gt;" style="edgeLabel;html=1;align=center;verticalAlign=middle;resizable=0;points=[];" vertex="1" connectable="0" parent="WIyWlLk6GJQsqaUBKTNV-1">
          <mxGeometry x="6330" y="880" as="geometry">
            <mxPoint x="-53" y="7" as="offset" />
          </mxGeometry>
        </mxCell>
        <mxCell id="Hs6rmwznbdLAOPUni4K7-11" value="&lt;font color=&quot;#9999ff&quot;&gt;&lt;span style=&quot;font-size: 22px;&quot;&gt;SP+1&lt;/span&gt;&lt;/font&gt;" style="edgeLabel;html=1;align=center;verticalAlign=middle;resizable=0;points=[];" vertex="1" connectable="0" parent="WIyWlLk6GJQsqaUBKTNV-1">
          <mxGeometry x="6340" y="840" as="geometry">
            <mxPoint x="-53" y="7" as="offset" />
          </mxGeometry>
        </mxCell>
        <mxCell id="Hs6rmwznbdLAOPUni4K7-12" value="&lt;font color=&quot;#9999ff&quot;&gt;&lt;span style=&quot;font-size: 22px;&quot;&gt;SP-1&lt;/span&gt;&lt;/font&gt;" style="edgeLabel;html=1;align=center;verticalAlign=middle;resizable=0;points=[];" vertex="1" connectable="0" parent="WIyWlLk6GJQsqaUBKTNV-1">
          <mxGeometry x="6250" y="910" as="geometry">
            <mxPoint x="-53" y="7" as="offset" />
          </mxGeometry>
        </mxCell>
        <mxCell id="Hs6rmwznbdLAOPUni4K7-13" value="&lt;font color=&quot;#9999ff&quot;&gt;&lt;span style=&quot;font-size: 22px;&quot;&gt;SP-2&lt;/span&gt;&lt;/font&gt;" style="edgeLabel;html=1;align=center;verticalAlign=middle;resizable=0;points=[];" vertex="1" connectable="0" parent="WIyWlLk6GJQsqaUBKTNV-1">
          <mxGeometry x="6250" y="943.16" as="geometry">
            <mxPoint x="-53" y="7" as="offset" />
          </mxGeometry>
        </mxCell>
        <mxCell id="Hs6rmwznbdLAOPUni4K7-14" style="edgeStyle=orthogonalEdgeStyle;rounded=0;orthogonalLoop=1;jettySize=auto;html=1;strokeColor=#CC0000;strokeWidth=5;fillColor=#CC0000;gradientColor=none;flowAnimation=0;exitX=0.54;exitY=-0.024;exitDx=0;exitDy=0;fontColor=#6666FF;exitPerimeter=0;entryX=0.538;entryY=0.996;entryDx=0;entryDy=0;entryPerimeter=0;" edge="1" parent="WIyWlLk6GJQsqaUBKTNV-1" source="Hs6rmwznbdLAOPUni4K7-0" target="Hs6rmwznbdLAOPUni4K7-2">
          <mxGeometry relative="1" as="geometry">
            <mxPoint x="6510" y="1078.33" as="sourcePoint" />
            <mxPoint x="6799.439655172414" y="1078.33" as="targetPoint" />
          </mxGeometry>
        </mxCell>
        <mxCell id="Hs6rmwznbdLAOPUni4K7-15" style="edgeStyle=orthogonalEdgeStyle;rounded=0;orthogonalLoop=1;jettySize=auto;html=1;entryX=0.5;entryY=1;entryDx=0;entryDy=0;strokeColor=#CC0000;strokeWidth=5;fillColor=#CC0000;gradientColor=none;flowAnimation=0;exitX=0.5;exitY=0;exitDx=0;exitDy=0;fontColor=#6666FF;" edge="1" parent="WIyWlLk6GJQsqaUBKTNV-1">
          <mxGeometry relative="1" as="geometry">
            <mxPoint x="6524.31" y="-820.0000000000001" as="sourcePoint" />
            <mxPoint x="6813.749655172414" y="-820.0000000000001" as="targetPoint" />
          </mxGeometry>
        </mxCell>
        <mxCell id="Hs6rmwznbdLAOPUni4K7-16" style="edgeStyle=orthogonalEdgeStyle;rounded=0;orthogonalLoop=1;jettySize=auto;html=1;entryX=0.541;entryY=1.004;entryDx=0;entryDy=0;strokeColor=#CC0000;strokeWidth=5;fillColor=#CC0000;gradientColor=none;flowAnimation=0;exitX=0.463;exitY=-0.029;exitDx=0;exitDy=0;fontColor=#6666FF;exitPerimeter=0;entryPerimeter=0;" edge="1" parent="WIyWlLk6GJQsqaUBKTNV-1" source="Hs6rmwznbdLAOPUni4K7-1" target="86CAOPFkjnfypf_7lXeF-13">
          <mxGeometry relative="1" as="geometry">
            <mxPoint x="6840" y="518.89" as="sourcePoint" />
            <mxPoint x="7129.439655172414" y="518.89" as="targetPoint" />
          </mxGeometry>
        </mxCell>
        <mxCell id="Hs6rmwznbdLAOPUni4K7-20" style="edgeStyle=orthogonalEdgeStyle;rounded=0;orthogonalLoop=1;jettySize=auto;html=1;strokeColor=#6666FF;strokeWidth=5;fillColor=#CC0000;gradientColor=none;flowAnimation=0;exitX=1.01;exitY=0.35;exitDx=0;exitDy=0;fontColor=#6666FF;exitPerimeter=0;" edge="1" parent="WIyWlLk6GJQsqaUBKTNV-1" source="86CAOPFkjnfypf_7lXeF-58" target="86CAOPFkjnfypf_7lXeF-8">
          <mxGeometry relative="1" as="geometry">
            <mxPoint x="3800" y="-779.9999999999999" as="sourcePoint" />
            <mxPoint x="4089.439655172414" y="-779.9999999999999" as="targetPoint" />
            <Array as="points">
              <mxPoint x="3876" y="-80" />
            </Array>
          </mxGeometry>
        </mxCell>
        <mxCell id="Hs6rmwznbdLAOPUni4K7-21" style="edgeStyle=orthogonalEdgeStyle;rounded=0;orthogonalLoop=1;jettySize=auto;html=1;entryX=0.185;entryY=1.027;entryDx=0;entryDy=0;strokeColor=#6666FF;strokeWidth=5;fillColor=#CC0000;gradientColor=none;flowAnimation=0;exitX=0.224;exitY=-0.034;exitDx=0;exitDy=0;fontColor=#6666FF;exitPerimeter=0;entryPerimeter=0;" edge="1" parent="WIyWlLk6GJQsqaUBKTNV-1" source="86CAOPFkjnfypf_7lXeF-8" target="86CAOPFkjnfypf_7lXeF-11">
          <mxGeometry relative="1" as="geometry">
            <mxPoint x="4240.56" y="-640" as="sourcePoint" />
            <mxPoint x="4529.999655172414" y="-640" as="targetPoint" />
            <Array as="points">
              <mxPoint x="4800" y="-70" />
              <mxPoint x="4800" y="-180" />
              <mxPoint x="5170" y="-180" />
              <mxPoint x="5170" y="-109" />
            </Array>
          </mxGeometry>
        </mxCell>
        <mxCell id="Hs6rmwznbdLAOPUni4K7-23" value="&lt;font color=&quot;#9999ff&quot; style=&quot;font-size: 22px;&quot;&gt;SP signals&lt;/font&gt;" style="edgeLabel;html=1;align=center;verticalAlign=middle;resizable=0;points=[];" vertex="1" connectable="0" parent="WIyWlLk6GJQsqaUBKTNV-1">
          <mxGeometry x="5990" y="-102.39999999999999" as="geometry">
            <mxPoint x="27" y="-3" as="offset" />
          </mxGeometry>
        </mxCell>
        <mxCell id="Hs6rmwznbdLAOPUni4K7-24" style="edgeStyle=orthogonalEdgeStyle;rounded=0;orthogonalLoop=1;jettySize=auto;html=1;strokeColor=#6666FF;strokeWidth=5;fillColor=#CC0000;gradientColor=none;flowAnimation=0;fontColor=#6666FF;entryX=0;entryY=0.5;entryDx=0;entryDy=0;exitX=0.191;exitY=0.009;exitDx=0;exitDy=0;exitPerimeter=0;" edge="1" parent="WIyWlLk6GJQsqaUBKTNV-1" source="86CAOPFkjnfypf_7lXeF-11" target="Hs6rmwznbdLAOPUni4K7-0">
          <mxGeometry relative="1" as="geometry">
            <mxPoint x="6150" y="-80" as="sourcePoint" />
            <mxPoint x="6600" y="800" as="targetPoint" />
            <Array as="points">
              <mxPoint x="6320" y="-103" />
              <mxPoint x="6320" y="790" />
              <mxPoint x="6567" y="790" />
            </Array>
          </mxGeometry>
        </mxCell>
        <mxCell id="Hs6rmwznbdLAOPUni4K7-25" style="edgeStyle=orthogonalEdgeStyle;rounded=0;orthogonalLoop=1;jettySize=auto;html=1;entryX=0;entryY=0.5;entryDx=0;entryDy=0;strokeColor=#6666FF;strokeWidth=5;fillColor=#CC0000;gradientColor=none;flowAnimation=0;exitX=0.214;exitY=0.009;exitDx=0;exitDy=0;fontColor=#6666FF;exitPerimeter=0;" edge="1" parent="WIyWlLk6GJQsqaUBKTNV-1" source="86CAOPFkjnfypf_7lXeF-11" target="Hs6rmwznbdLAOPUni4K7-1">
          <mxGeometry relative="1" as="geometry">
            <mxPoint x="6450" y="-820" as="sourcePoint" />
            <mxPoint x="6739.439655172415" y="-820" as="targetPoint" />
            <Array as="points">
              <mxPoint x="6503" y="-80" />
            </Array>
          </mxGeometry>
        </mxCell>
        <mxCell id="Hs6rmwznbdLAOPUni4K7-26" style="edgeStyle=orthogonalEdgeStyle;rounded=0;orthogonalLoop=1;jettySize=auto;html=1;entryX=0.5;entryY=1;entryDx=0;entryDy=0;strokeColor=#6666FF;strokeWidth=5;fillColor=#CC0000;gradientColor=none;flowAnimation=0;exitX=0.5;exitY=0;exitDx=0;exitDy=0;fontColor=#6666FF;" edge="1" parent="WIyWlLk6GJQsqaUBKTNV-1">
          <mxGeometry relative="1" as="geometry">
            <mxPoint x="6510" y="-880" as="sourcePoint" />
            <mxPoint x="6799.439655172415" y="-880" as="targetPoint" />
          </mxGeometry>
        </mxCell>
      </root>
    </mxGraphModel>
  </diagram>
</mxfile>
